<svg xmlns="http://www.w3.org/2000/svg" viewBox="0 0 255.6 260.16"><defs><style>.cls-1{fill:none;}.cls-2{fill:#e1e2e8;}</style></defs><g id="Layer_2" data-name="Layer 2"><g id="Layer_1-2" data-name="Layer 1"><path class="cls-1" d="M7.23,0Q3.56,1.27,0,2.66v8.72A197.6,197.6,0,0,1,42,0Z"/><path class="cls-1" d="M11.65,190.71a1.21,1.21,0,0,0-.86-.32c-2.34,0-6.35,3.74-10.79,8.86V210c.78-1.47,1.14-2.33,1.16-2.38a.77.77,0,0,1,.73-.43.84.84,0,0,1,.27,0,.74.74,0,0,1,.44.37.56.56,0,0,1,0,.43A46.68,46.68,0,0,1,0,212.91v13.65c.76-1,1.48-1.91,2.15-2.82C13.91,207.52,15.23,193.91,11.65,190.71Z"/><path class="cls-1" d="M88.67,240.91c-.32,0-.65,0-1,.05-4.3.48-8.31,8-12.55,15.93-.58,1.09-1.17,2.18-1.76,3.27h13A5.89,5.89,0,0,1,89.59,259h.34a4.14,4.14,0,0,1,2.5,1.18h9.47C95.78,243.8,92.74,240.91,88.67,240.91Z"/><path class="cls-1" d="M100.12,236.8c-4.35-5.42-8.71-8.17-13-8.17a9.73,9.73,0,0,0-1.07.06c-6.87.75-12.83,8.88-16.12,16.24a81.55,81.55,0,0,1-9.38,15.23H71.69c.69-1.26,1.37-2.53,2-3.78,4.62-8.65,8.6-16.11,13.75-16.67a10.23,10.23,0,0,1,1.09-.06c6.94,0,10.19,7.78,14.92,20.48l0,0h10.55c-1-1.77-1.92-3.52-2.84-5.22C107.58,248.19,104.16,241.84,100.12,236.8Z"/><path class="cls-1" d="M165,251.43a109.73,109.73,0,0,0,13.41,8.73h20.2c-16-2.62-26.78-6.55-33.14-9.51Z"/><path class="cls-1" d="M15,176a7.28,7.28,0,0,1,1.25.1c3.48.58,5.93,3.68,7.31,9.21,3.61,14.55-3.71,36.69-23.55,56V251a108.37,108.37,0,0,0,17.19-18.49c12-16.54,17.07-34.73,13.61-48.67-2.6-10.46-8.61-13.59-13.2-14.36a15.83,15.83,0,0,0-2.66-.22c-4.8,0-9.75,2.21-14.94,6.17v9.37C6.2,178.83,11.12,176,15,176Z"/><path class="cls-1" d="M24.2,253.82C35,241.38,48.13,219.48,49.75,207.94c.25-1.84.54-3.59.83-5.28v-.1c1.51-9,2.7-16.17-2.69-26.62-3.86-7.47-8.42-18.27-3.56-25.68,3.14-4.78,9.82-7.55,19.85-8.24,2.24-.16,4.46-.24,6.58-.24,12.58,0,23.6,2.71,33.69,8.27s19.54,14.12,29,26.22c19.15,24.54,33.81,36.25,75.06,45.23a.72.72,0,0,1,.49.33.55.55,0,0,1,.06.42.75.75,0,0,1-.74.5h0a.63.63,0,0,1-.19,0c-41.74-9.08-56.58-20.93-76-45.77C113.61,153.18,95.31,143,71,143c-2.14,0-4.38.08-6.65.24-9.5.65-15.77,3.21-18.64,7.58-4.55,6.93-.11,17.35,3.62,24.59,5.56,10.77,4.28,18.42,2.8,27.28-.27,1.62-.57,3.46-.84,5.36-1.64,11.72-14.93,33.9-25.83,46.47-1.62,1.87-3.43,3.74-5.37,5.6H33.11c13.64-15.08,22.71-38.74,25.54-51.26,5.44-24.13-.24-35-4-42.2C53,163.53,51.7,161,52.2,158.58c1.23-6.09,7.22-9.19,17.8-9.19,1.68,0,3.2.08,4.31.14h.16c.61,0,1.1.06,1.45.06,20.2,0,34.65,13.21,50.13,33,21.52,27.58,38.79,37.61,80.33,46.65a9.05,9.05,0,0,0,1.93.21,8.06,8.06,0,0,0,8-5.63,6.71,6.71,0,0,0-1-5.62,8.15,8.15,0,0,0-5.07-3.32c-37.94-8.26-52.91-20.62-72.1-45.21-18.79-24.09-34.81-37.14-65.59-37.14h-2c-11.48,0-31.78,2-38.7,15.19-3.25,6.21.84,13.72,4.78,21a66,66,0,0,1,4.79,10.09c3.45,10.44,2.3,18.69,1,28.25C40.81,218.2,31,235.45,18,250A107.1,107.1,0,0,1,7.57,260.16H18C20.28,258.05,22.36,255.93,24.2,253.82Z"/><path class="cls-1" d="M21.37,152.63c-.16-.73-.54-.83-.92-.83-2,0-6,3-8.18,5.65a5.57,5.57,0,0,0-1.46,2.66l0,.5h.58c.38,0,1,0,1.66-.08.88-.05,2-.13,3.1-.13a13.05,13.05,0,0,1,5.13.83,2.91,2.91,0,0,0,1,.27l.19,0,.12,0,.09-.09c.56-.61.34-2.45-.81-6.81C21.66,153.81,21.49,153.18,21.37,152.63Z"/><path class="cls-1" d="M89.29,170.54l-.15-.06-.11,0c-3.4-1.17-7.62-2.63-10.18-2.63-.93,0-1.51.19-1.77.57-.37.57-.42,1.91,1.47,5.09,2.55,4.31,2.34,9.59,2.16,14.26-.17,4.12-.32,8,1.66,9.86a5.85,5.85,0,0,0,4.14,1.29c6.78,0,14.55-13.37,14.86-15.64C101.82,180,96.83,173.14,89.29,170.54Zm-.71,19c-2.57,0-2.7-6.23-2.7-7.48a13.37,13.37,0,0,1,.35-3.29c.33-1.22.93-1.84,1.78-1.84a1.6,1.6,0,0,1,.53.09c2.77.95,6.4,4.71,6.16,6.38C94.59,184.19,91.86,189.51,88.58,189.51Z"/><path class="cls-1" d="M22.05,185.54c-1.23-5-3.29-7.74-6.11-8.22a6,6,0,0,0-1-.08c-4.11,0-9.58,4.11-15,9.45v10.4c4.25-4.7,8.1-8,10.79-8a2.86,2.86,0,0,1,2,.73c5.71,5.1-.2,22-9.31,34.54-1,1.42-2.18,2.91-3.45,4.44v10.5C18.65,220.64,25.52,199.52,22.05,185.54Z"/><path class="cls-1" d="M68.11,210.93a3.31,3.31,0,0,0-.83.1l-.19.05-.09.17a27.65,27.65,0,0,0-2.55,5.56l-.21.8.79-.25c2.09-.65,6.11-2.71,7.21-3.84l.32-.34-.33-.32A6.79,6.79,0,0,0,68.11,210.93Z"/><path class="cls-1" d="M255.6,0H181l0,0a.56.56,0,0,1,.24.43.56.56,0,0,1-.17.43.82.82,0,0,1-.59.23A.88.88,0,0,1,180,1L178.8,0h-10q8.11,5.42,15.9,11.7a.57.57,0,0,1,.23.43.54.54,0,0,1-.18.43.82.82,0,0,1-.58.23.87.87,0,0,1-.53-.18A213.35,213.35,0,0,0,166.37,0H153.75a212,212,0,0,1,34.53,23.37.55.55,0,0,1,0,.86.87.87,0,0,1-1.11,0A209.76,209.76,0,0,0,150.9,0H133.5a206.11,206.11,0,0,1,58.39,35,.54.54,0,0,1,.22.42.56.56,0,0,1-.19.44.81.81,0,0,1-.57.22.85.85,0,0,1-.54-.19Q162,11.69,130,0H98.2A180.2,180.2,0,0,1,128,7.36c23.73,8.08,46.45,21.32,67.54,39.34a.59.59,0,0,1,.21.43.56.56,0,0,1-.19.44.87.87,0,0,1-1.11,0c-20.94-17.9-43.49-31-67-39.06A177.61,177.61,0,0,0,88.44,0H52A195.2,195.2,0,0,0,0,12.77v8.69A193.74,193.74,0,0,1,63.08,7.74c2.7-.12,5.43-.18,8.12-.18a179.46,179.46,0,0,1,58.7,9.87c24.31,8.39,47.59,22.16,69.2,40.94a.6.6,0,0,1,.22.43.58.58,0,0,1-.2.43.82.82,0,0,1-.57.21.85.85,0,0,1-.54-.19C176.54,40.6,153.43,26.92,129.32,18.6A177.84,177.84,0,0,0,71.19,8.83c-2.66,0-5.36.06-8,.18A192,192,0,0,0,0,22.87v8.77a194,194,0,0,1,63.48-14.1c2.89-.14,5.82-.21,8.7-.21A180.56,180.56,0,0,1,131.9,27.51c24.87,8.7,48.69,23,70.81,42.53a.56.56,0,0,1,.21.43.58.58,0,0,1-.2.43.86.86,0,0,1-.56.21.85.85,0,0,1-.56-.2c-22-19.39-45.62-33.6-70.29-42.23A178.66,178.66,0,0,0,72.17,18.6c-2.85,0-5.74.07-8.6.21A192.3,192.3,0,0,0,0,33v8.77A194,194,0,0,1,64,27.34c3.05-.16,6.14-.23,9.19-.23a181.55,181.55,0,0,1,60.79,10.5c25.4,9,49.76,23.85,72.38,44.1a.56.56,0,0,1,0,.86.88.88,0,0,1-1.12,0c-22.47-20.12-46.65-34.85-71.86-43.79A179.5,179.5,0,0,0,73.16,28.37c-3,0-6.09.08-9.11.23A193,193,0,0,0,0,43.21V52A195.27,195.27,0,0,1,64.49,37.13c3.2-.17,6.43-.25,9.62-.25A182.77,182.77,0,0,1,136,47.72c25.93,9.32,50.8,24.68,73.92,45.66a.57.57,0,0,1,.2.43.59.59,0,0,1-.21.43.83.83,0,0,1-.55.2.87.87,0,0,1-.57-.21c-23-20.84-47.65-36.1-73.39-45.34A180.76,180.76,0,0,0,74.12,38.14c-3.16,0-6.36.09-9.53.25A193.53,193.53,0,0,0,0,53.36v8.71A198.29,198.29,0,0,1,65.08,46.92c3.33-.18,6.7-.27,10-.27a183.6,183.6,0,0,1,63,11.19c26.46,9.63,51.84,25.51,75.43,47.2a.6.6,0,0,1,.2.43.58.58,0,0,1-.21.43.83.83,0,0,1-.55.2.87.87,0,0,1-.57-.21C189,84.33,163.75,68.56,137.5,59A182,182,0,0,0,75.07,47.91c-3.27,0-6.6.1-9.89.27A194.61,194.61,0,0,0,0,63.5v8.67A199.43,199.43,0,0,1,65.7,56.71c3.44-.2,6.93-.29,10.36-.29A185,185,0,0,1,140.22,68c27,10,52.85,26.35,76.92,48.75a.54.54,0,0,1,.19.43.58.58,0,0,1-.21.43.83.83,0,0,1-.55.2.8.8,0,0,1-.56-.22C192.08,95.29,166.38,79,139.61,69.12A183.26,183.26,0,0,0,76.06,57.68c-3.4,0-6.85.1-10.26.29A197.92,197.92,0,0,0,0,73.59V83.65A173.39,173.39,0,0,1,66.89,66.07c2.78-.14,5.61-.21,8.38-.21,49,0,96.93,22.09,142.57,65.66a.54.54,0,0,1,.19.43.57.57,0,0,1-.22.43.85.85,0,0,1-.54.19.81.81,0,0,1-.57-.22C171.36,89.07,123.77,67.12,75.26,67.12c-2.75,0-5.53.08-8.28.22C44.27,68.5,21.81,74.48,0,85.12V95.36c22.77-12.8,45.32-19.2,69.9-19.94,1.36,0,2.73-.06,4.08-.06,24.92,0,48.65,6.78,74.68,21.36,17.79,10,37,22.83,60.38,39.11,1.11.77,2.23,1.51,3.47,2.34a56.15,56.15,0,0,1,7.71,5.71.57.57,0,0,1,.19.43.64.64,0,0,1-.22.43.86.86,0,0,1-.54.18.9.9,0,0,1-.58-.21,56,56,0,0,0-7.5-5.55c-1.25-.83-2.37-1.57-3.5-2.36-23.34-16.25-42.52-29.11-60.26-39C122.05,83.34,98.58,76.63,73.94,76.63c-1.32,0-2.66,0-4,.06C45.37,77.42,22.81,83.92,0,96.9v10.23C17.87,95.49,40.29,85.52,71.07,84.85l2.67,0c31.81,0,54.81,12.41,74.93,25.82l3.34,2.23c17.43,11.63,37.18,24.81,58.38,36.58,1.63.9,3.3,1.71,4.9,2.5l.07,0c3,1.49,5.69,2.78,7.24,4.25a.63.63,0,0,1,.19.43.6.6,0,0,1-.23.43.83.83,0,0,1-.54.19.81.81,0,0,1-.57-.22c-1.37-1.3-4-2.6-6.82-4l-.15-.07c-1.61-.79-3.28-1.6-4.93-2.52-21.25-11.79-41-25-58.5-36.64l-3.33-2.23c-19.9-13.27-42.64-25.54-74.07-25.54l-2.54,0C40.22,86.79,17.82,97,0,108.74v10.34c17.24-12.91,39.13-24.31,72.25-24.8H74c33.56,0,54.5,14.33,74.72,30.3,11.49,9.07,35,26.14,63.07,38.5,2.2,1,4.49,1.77,6.52,2.49,3.13,1.09,5.59,2,6.71,3a.54.54,0,0,1,.19.43.57.57,0,0,1-.22.43.87.87,0,0,1-.54.19.85.85,0,0,1-.58-.22c-.88-.84-3.31-1.7-6.12-2.69-2.08-.72-4.39-1.54-6.67-2.54-28.27-12.43-51.86-29.59-63.41-38.71-20-15.78-40.67-29.94-73.68-29.94H72.27C38.8,96.05,17.52,107.37,0,120.76v10.45c18.09-15.52,38.45-27.19,73.42-27.5h.9c37.06,0,56.87,18.48,74.35,34.79,17.07,15.93,41.15,30.21,64.42,38.21,2.9,1,5.93,1.72,8.38,2.3,3.38.81,5.17,1.26,5.88,1.93a.59.59,0,0,1,.19.44.6.6,0,0,1-.22.42.82.82,0,0,1-.55.19.89.89,0,0,1-.57-.21c-.47-.39-2-.79-5.12-1.55-2.48-.59-5.56-1.32-8.56-2.35-23.47-8.07-47.77-22.47-65-38.54S110.7,105,74.38,105h-.94C38.33,105.29,18.14,117.25,0,133v10.36C16.32,127.28,36,113,74.59,113H75c38.17,0,56.06,19.81,71.84,37.28l1.86,2.13c15.19,16.76,40.4,31.28,65.79,37.91a95.68,95.68,0,0,0,10.87,2h.11c3.08.43,3.9.56,4.3.94a.56.56,0,0,1,.18.43.57.57,0,0,1-.22.43.81.81,0,0,1-.53.18.83.83,0,0,1-.47-.13l-.05,0-.06,0a28.62,28.62,0,0,0-3.4-.57A97.7,97.7,0,0,1,214,191.52c-25.65-6.69-51.15-21.41-66.55-38.41l-1.8-2-.16-.17C129.17,132.83,112.3,114.14,75,114.14H74.6c-38.82,0-58.25,14.76-74.6,31.14v10.66c15.72-17.5,34.58-33.47,75.6-33.47h.16c39.92,0,55.85,21.19,69.9,39.88l.07.1c.43.57.86,1.16,1.29,1.75.55.74,1.09,1.49,1.63,2.2,13.51,17.71,39.87,32.47,67.16,37.61a98.64,98.64,0,0,0,15.72,1.44.72.72,0,0,1,.76.63.72.72,0,0,1-.76.65,97.76,97.76,0,0,1-16.06-1.46c-27.66-5.21-54.4-20.19-68.11-38.16-.44-.58-.89-1.15-1.34-1.72s-1.05-1.32-1.58-2C130.65,145,115,124.24,75.76,124.24H75.6C34,124.24,16.15,140.07,0,158.31v15.33C5.11,170,10,168,14.94,168a17.06,17.06,0,0,1,3,.25c5,.85,11.63,4.2,14.4,15.35,3.53,14.24-1.63,32.77-13.81,49.57A109.52,109.52,0,0,1,0,252.76v7.4H5.44a109.11,109.11,0,0,0,11.38-10.9c12.85-14.4,22.51-31.41,24-42.31s2.29-18.07-.92-27.78a64.39,64.39,0,0,0-4.7-9.9c-4.09-7.52-8.31-15.29-4.8-22,7.27-13.89,28.24-16,40.1-16h2c31.35,0,48.28,13.83,66.92,37.73,19,24.3,33.75,36.51,71.2,44.67a9.68,9.68,0,0,1,6,3.92,7.81,7.81,0,0,1,1.13,6.51c-1.06,3.9-4.95,6.63-9.45,6.63a11.27,11.27,0,0,1-2.31-.25c-42-9.14-59.45-19.29-81.23-47.19-15.21-19.49-29.34-32.48-48.85-32.48-.41,0-1,0-1.7-.06-1.09,0-2.57-.13-4.22-.13-9.86,0-15.19,2.66-16.3,8.13-.43,2.1.73,4.32,2.34,7.4,3.61,6.9,9.63,18.43,4.11,42.94-2.42,10.73-10.71,34.65-25.15,51H47.14a94.33,94.33,0,0,0,11.67-20.05c6.88-15.17,15.5-23,25.62-23.23h.49c14.58,0,28.12,15.91,35.29,29.53a121.67,121.67,0,0,0,8.43,13.76h12.17c-10.08-11.49-18.16-24.49-24.45-35.59-7.71-13.6-6-20.47-3.18-23.85a9.76,9.76,0,0,1,7.47-3.4,9.32,9.32,0,0,1,1.43.11c2.87.47,5.53,3.42,9.21,7.51,4.68,5.2,11.1,12.33,21.5,18.35,12.44,7.2,26.75,10,38.24,12.2a129.36,129.36,0,0,1,14.29,3.28.74.74,0,0,1,.44.37.54.54,0,0,1,0,.42.78.78,0,0,1-.72.44.87.87,0,0,1-.28-.05,128.3,128.3,0,0,0-14.06-3.22c-11.63-2.25-26.1-5-38.79-12.4-10.59-6.13-17.1-13.36-21.85-18.63-3.35-3.72-6-6.65-8.28-7a8.19,8.19,0,0,0-7.35,2.77c-2.11,2.54-4.5,8.85,3.3,22.59,8.87,15.65,17.36,27.35,25.18,36.13H155.4a147,147,0,0,1-21.35-24.36c-5-7-8-12.07-8.76-15.22-.6-2.32.13-2.85.57-3.16a2,2,0,0,1,1.31-.43c1.77,0,5.6,1.53,13.76,8.82,5.77,5.15,17.93,10.88,34.26,16.14,13.88,4.47,27.19,7.44,32.66,8a.8.8,0,0,1,.55.28.61.61,0,0,1,.12.41.74.74,0,0,1-.76.58h-.08c-11.64-1.11-54.15-12.26-67.86-24.5-6.94-6.19-11.1-8.39-12.56-8.39a1,1,0,0,0-.31.05l-.6.2.26.35c-.12,1.1.53,4.85,8.74,16.27a146.91,146.91,0,0,0,22.26,25h18.2c-10.15-5.89-16.94-11.8-17.11-13a.68.68,0,0,1,.37-.72,1,1,0,0,1,.51-.13,4.44,4.44,0,0,1,1.9.74c5.74,3.31,18.86,9.33,42.14,12.54a.82.82,0,0,1,.53.29.69.69,0,0,1,.09.23H255.6ZM23.83,162.12a2,2,0,0,1-1.56.65,4.62,4.62,0,0,1-1.72-.41,11.49,11.49,0,0,0-4.44-.69c-1.08,0-2.13.07-3,.13H13c-.62,0-1.16.07-1.6.07a2.45,2.45,0,0,1-1.35-.27c-.52-.36-1-1.06-.52-2.44,1.13-3,7.33-8.63,11-8.63a2.3,2.3,0,0,1,2.42,1.86c.12.53.28,1.15.46,1.82v.05C24.31,157.94,25,160.85,23.83,162.12ZM74,213.5c-.76,1.7-7,4.76-9.46,5.18a.87.87,0,0,0-.36-.09c-.74,0-1-.21-1.1-.4-.45-.67-.33-2.59,2.8-7.93l.09-.13.26-.11a5.13,5.13,0,0,1,1.92-.38,8.24,8.24,0,0,1,5.73,2.85A.92.92,0,0,1,74,213.5Zm8.46-3.78v-.06l.29.06Zm23.8,7.29a2,2,0,0,1-1.53.62,3.22,3.22,0,0,1-1.21-.24,17.22,17.22,0,0,1-4.85-3A3.1,3.1,0,0,1,97.48,212a2.41,2.41,0,0,1,1.13-1.81,6.74,6.74,0,0,1,2.69-1.29h.08l.08,0a1,1,0,0,1,.48-.12c1.18,0,2.92,1.79,4,4.09C106.74,214.69,106.86,216.28,106.22,217Zm7.6-30.55c-.33,2.4-1.38,3.21-3.11,4.55a38.58,38.58,0,0,0-5.69,5.47l-1,1.18-1,1.15c-5.15,6-8.87,10.26-20,10.26h-.46v0l-.86-.15c-3.07-.54-5.73-1-7.28-2.44-3.25-3-3.36-8.36-3.19-14.05.2-6.34.42-13.52-3.34-19.85-2.69-4.53-3.24-8-1.64-10.4,1.45-2.16,4.64-3.3,9.21-3.3a47.12,47.12,0,0,1,14.41,2.63C100.89,165.35,114.76,179.78,113.82,186.46Z"/><path class="cls-1" d="M89.32,162.71a45.38,45.38,0,0,0-13.83-2.56c-4.06,0-6.72.88-7.88,2.62-1.33,2-.76,5,1.68,9.16,3.92,6.61,3.69,13.88,3.5,20.3-.18,5.65-.33,10.53,2.47,13.11,1.13,1,2.69,1.26,4.67,1.54.81.11,1.72.24,2.7.44h.18c10.56,0,14.67-4.69,19.85-10.64l1-.84,0,0a39.49,39.49,0,0,1,6-5.7c1.63-1.26,2.37-1.83,2.64-3.79.38-2.72-2.31-7.5-7-12.49C100.33,168.62,94.36,164.46,89.32,162.71ZM103,183.48c-.36,2.62-8.49,16.87-16.32,16.87h0a7.63,7.63,0,0,1-5.38-1.81c-2.39-2.23-2.24-6.18-2.06-10.76s.39-9.68-2-13.7c-1.78-3-2.25-5.06-1.43-6.29a3.49,3.49,0,0,1,3.1-1.23c2.91,0,7.14,1.46,10.88,2.75l.18.06C96.87,171.77,103.58,179,103,183.48Z"/><path class="cls-1" d="M102.35,210.37a1.59,1.59,0,0,0-.45-.3l-.39-.16-.21.15a3.53,3.53,0,0,1-.34.24l-.34.24-.25.18c-.57.4-1.63,1.14-1.1,2a6,6,0,0,0,1.86,1.61l.65.43a9.33,9.33,0,0,0,2.51,1.35l.58.17v-.61a7.58,7.58,0,0,0-1.24-3.56A6.47,6.47,0,0,0,102.35,210.37Zm2.31,5.56,0,.1S104.57,216,104.66,215.93Z"/><path class="cls-1" d="M88.44,178.36l-.42-.2-.19.42c-.82,1.83-.4,8,.63,9.44l.19.25.3-.07c1.74-.43,4-4,4.23-5l0-.06v-.06C93.15,182.13,90.49,179.31,88.44,178.36Z"/><path class="cls-1" d="M84.93,218.14h-.45c-9.45.23-17.6,7.77-24.24,22.42a105,105,0,0,1-11.63,19.6H58.77a81.3,81.3,0,0,0,9.76-15.67c1.67-3.74,7.86-16,17.36-17.05a11,11,0,0,1,1.28-.08c4.78,0,9.56,2.94,14.21,8.74,4.12,5.13,7.57,11.54,11.22,18.32,1,1.89,2.05,3.81,3.12,5.74h11.15a122.69,122.69,0,0,1-8.06-13.25C111.83,233.64,98.77,218.14,84.93,218.14Z"/><path class="cls-2" d="M184.14,12.79a.82.82,0,0,0,.58-.23.54.54,0,0,0,.18-.43.57.57,0,0,0-.23-.43Q176.89,5.4,168.77,0h-2.4a213.35,213.35,0,0,1,17.24,12.61A.87.87,0,0,0,184.14,12.79Z"/><path class="cls-2" d="M187.74,24.45a.82.82,0,0,0,.58-.22.55.55,0,0,0,0-.86A212,212,0,0,0,153.75,0H150.9a209.76,209.76,0,0,1,36.31,24.27A.81.81,0,0,0,187.74,24.45Z"/><path class="cls-2" d="M190.81,35.93a.85.85,0,0,0,.54.19.81.81,0,0,0,.57-.22.56.56,0,0,0,.19-.44.54.54,0,0,0-.22-.42A206.11,206.11,0,0,0,133.5,0H130Q161.89,11.67,190.81,35.93Z"/><path class="cls-2" d="M42,0A197.6,197.6,0,0,0,0,11.38v1.39A195.2,195.2,0,0,1,52,0Z"/><path class="cls-2" d="M127.38,8.53c23.54,8,46.09,21.16,67,39.06a.87.87,0,0,0,1.11,0,.56.56,0,0,0,.19-.44.59.59,0,0,0-.21-.43c-21.09-18-43.81-31.26-67.54-39.34A180.2,180.2,0,0,0,98.2,0H88.44A177.61,177.61,0,0,1,127.38,8.53Z"/><path class="cls-2" d="M71.19,8.83a177.84,177.84,0,0,1,58.13,9.77c24.11,8.32,47.22,22,68.69,40.65a.85.85,0,0,0,.54.19.82.82,0,0,0,.57-.21.58.58,0,0,0,.2-.43.6.6,0,0,0-.22-.43c-21.61-18.78-44.89-32.55-69.2-40.94A179.46,179.46,0,0,0,71.2,7.56c-2.69,0-5.42.06-8.12.18A193.74,193.74,0,0,0,0,21.46v1.41A192,192,0,0,1,63.16,9C65.83,8.89,68.53,8.83,71.19,8.83Z"/><path class="cls-2" d="M72.17,18.6a178.66,178.66,0,0,1,59.14,10.08C156,37.31,179.63,51.52,201.6,70.91a.85.85,0,0,0,.56.2.86.86,0,0,0,.56-.21.58.58,0,0,0,.2-.43.56.56,0,0,0-.21-.43c-22.12-19.52-45.94-33.83-70.81-42.53A180.56,180.56,0,0,0,72.18,17.33c-2.88,0-5.81.07-8.7.21A194,194,0,0,0,0,31.64V33A192.3,192.3,0,0,1,63.57,18.81C66.43,18.67,69.32,18.6,72.17,18.6Z"/><path class="cls-2" d="M73.16,28.37a179.5,179.5,0,0,1,60.18,10.41c25.21,8.94,49.39,23.67,71.86,43.79a.88.88,0,0,0,1.12,0,.56.56,0,0,0,0-.86c-22.62-20.25-47-35.09-72.38-44.1a181.55,181.55,0,0,0-60.79-10.5c-3.05,0-6.14.07-9.19.23A194,194,0,0,0,0,41.81v1.4A193,193,0,0,1,64.05,28.6C67.07,28.45,70.14,28.37,73.16,28.37Z"/><path class="cls-2" d="M74.12,38.14a180.76,180.76,0,0,1,61.29,10.75c25.74,9.24,50.43,24.5,73.39,45.34a.87.87,0,0,0,.57.21.83.83,0,0,0,.55-.2.59.59,0,0,0,.21-.43.57.57,0,0,0-.2-.43c-23.12-21-48-36.34-73.92-45.66a182.77,182.77,0,0,0-61.9-10.84c-3.19,0-6.42.08-9.62.25A195.27,195.27,0,0,0,0,52v1.41a193.53,193.53,0,0,1,64.59-15C67.76,38.23,71,38.14,74.12,38.14Z"/><path class="cls-2" d="M75.07,47.91A182,182,0,0,1,137.5,59c26.25,9.56,51.45,25.33,74.9,46.89a.87.87,0,0,0,.57.21.83.83,0,0,0,.55-.2.58.58,0,0,0,.21-.43.6.6,0,0,0-.2-.43c-23.59-21.69-49-37.57-75.43-47.2a183.6,183.6,0,0,0-63-11.19c-3.32,0-6.69.09-10,.27A198.29,198.29,0,0,0,0,62.07V63.5A194.61,194.61,0,0,1,65.18,48.18C68.47,48,71.8,47.91,75.07,47.91Z"/><path class="cls-2" d="M76.06,57.68a183.26,183.26,0,0,1,63.55,11.44C166.38,79,192.08,95.29,216,117.55a.8.8,0,0,0,.56.22.83.83,0,0,0,.55-.2.58.58,0,0,0,.21-.43.54.54,0,0,0-.19-.43c-24.07-22.4-49.95-38.8-76.92-48.75A185,185,0,0,0,76.06,56.42c-3.43,0-6.92.09-10.36.29A199.43,199.43,0,0,0,0,72.17v1.42A197.92,197.92,0,0,1,65.8,58C69.21,57.78,72.66,57.68,76.06,57.68Z"/><path class="cls-2" d="M75.26,67.12c48.51,0,96.1,21.95,141.44,65.23a.81.81,0,0,0,.57.22.85.85,0,0,0,.54-.19A.57.57,0,0,0,218,132a.54.54,0,0,0-.19-.43C172.2,88,124.23,65.86,75.27,65.86c-2.77,0-5.6.07-8.38.21A173.39,173.39,0,0,0,0,83.65v1.47C21.81,74.48,44.27,68.5,67,67.34,69.73,67.2,72.51,67.12,75.26,67.12Z"/><path class="cls-2" d="M73.94,76.63c24.64,0,48.11,6.71,73.87,21.14,17.74,9.92,36.92,22.78,60.26,39,1.13.79,2.25,1.53,3.5,2.36a56,56,0,0,1,7.5,5.55.9.9,0,0,0,.58.21.86.86,0,0,0,.54-.18.64.64,0,0,0,.22-.43.57.57,0,0,0-.19-.43,56.15,56.15,0,0,0-7.71-5.71c-1.24-.83-2.36-1.57-3.47-2.34-23.37-16.28-42.59-29.16-60.38-39.11C122.63,82.14,98.9,75.36,74,75.36c-1.35,0-2.72,0-4.08.06C45.32,76.16,22.77,82.56,0,95.36V96.9c22.81-13,45.37-19.48,70-20.21C71.28,76.65,72.62,76.63,73.94,76.63Z"/><path class="cls-2" d="M73.65,86.09c31.43,0,54.17,12.27,74.07,25.54l3.33,2.23c17.46,11.64,37.25,24.85,58.5,36.64,1.65.92,3.32,1.73,4.93,2.52l.15.07c2.8,1.37,5.45,2.67,6.82,4a.81.81,0,0,0,.57.22.83.83,0,0,0,.54-.19.6.6,0,0,0,.23-.43.63.63,0,0,0-.19-.43c-1.55-1.47-4.19-2.76-7.24-4.25l-.07,0c-1.6-.79-3.27-1.6-4.9-2.5-21.2-11.77-40.95-24.95-58.38-36.58l-3.34-2.23c-20.12-13.41-43.12-25.82-74.93-25.82l-2.67,0C40.29,85.52,17.87,95.49,0,107.13v1.61C17.82,97,40.22,86.79,71.11,86.12Z"/><path class="cls-2" d="M73.94,95.54c33,0,53.69,14.16,73.68,29.94,11.55,9.12,35.14,26.28,63.41,38.71,2.28,1,4.59,1.82,6.67,2.54,2.81,1,5.24,1.85,6.12,2.69a.85.85,0,0,0,.58.22.87.87,0,0,0,.54-.19.57.57,0,0,0,.22-.43.54.54,0,0,0-.19-.43c-1.12-1.07-3.58-1.94-6.71-3-2-.72-4.32-1.52-6.52-2.49-28.1-12.36-51.58-29.43-63.07-38.5-20.22-16-41.16-30.3-74.72-30.3h-1.7c-33.12.49-55,11.89-72.25,24.8v1.68c17.52-13.39,38.8-24.71,72.27-25.21Z"/><path class="cls-2" d="M74.38,105c36.32,0,55.87,18.24,73.15,34.37s41.52,30.47,65,38.54c3,1,6.08,1.76,8.56,2.35,3.16.76,4.65,1.16,5.12,1.55a.89.89,0,0,0,.57.21.82.82,0,0,0,.55-.19.6.6,0,0,0,.22-.42.59.59,0,0,0-.19-.44c-.71-.67-2.5-1.12-5.88-1.93-2.45-.58-5.48-1.31-8.38-2.3-23.27-8-47.35-22.28-64.42-38.21-17.48-16.31-37.29-34.79-74.35-34.79h-.9c-35,.31-55.33,12-73.42,27.5V133c18.14-15.78,38.33-27.74,73.44-28Z"/><path class="cls-2" d="M75,114.14c37.33,0,54.2,18.69,70.52,36.76l.16.17,1.8,2c15.4,17,40.9,31.72,66.55,38.41a97.7,97.7,0,0,0,11.18,2.07,28.62,28.62,0,0,1,3.4.57l.06,0,.05,0a.83.83,0,0,0,.47.13.81.81,0,0,0,.53-.18.57.57,0,0,0,.22-.43.56.56,0,0,0-.18-.43c-.4-.38-1.22-.51-4.3-.94h-.11a95.68,95.68,0,0,1-10.87-2c-25.39-6.63-50.6-21.15-65.79-37.91l-1.86-2.13C131,132.85,113.13,113,75,113h-.37C36,113,16.32,127.28,0,143.39v1.89c16.35-16.38,35.78-31.14,74.6-31.14Z"/><path class="cls-2" d="M75.6,124.24h.16c39.27,0,54.89,20.79,68.68,39.13.53.7,1.05,1.36,1.58,2s.9,1.14,1.34,1.72c13.71,18,40.45,32.95,68.11,38.16a97.76,97.76,0,0,0,16.06,1.46.72.72,0,0,0,.76-.65.72.72,0,0,0-.76-.63A98.64,98.64,0,0,1,215.81,204c-27.29-5.14-53.65-19.9-67.16-37.61-.54-.71-1.08-1.46-1.63-2.2-.43-.59-.86-1.18-1.29-1.75l-.07-.1c-14-18.69-30-39.88-69.9-39.88H75.6c-41,0-59.88,16-75.6,33.47v2.37C16.15,140.07,34,124.24,75.6,124.24Z"/><path class="cls-2" d="M15.94,177.32c2.82.48,4.88,3.24,6.11,8.22,3.47,14-3.4,35.1-22,53.79v1.95c19.84-19.3,27.16-41.44,23.55-56-1.38-5.53-3.83-8.63-7.31-9.21A7.28,7.28,0,0,0,15,176c-3.87,0-8.79,2.85-15,8.78v1.93c5.4-5.34,10.87-9.45,15-9.45A6,6,0,0,1,15.94,177.32Z"/><path class="cls-2" d="M18.49,233.12c12.18-16.8,17.34-35.33,13.81-49.57-2.77-11.15-9.36-14.5-14.4-15.35a17.06,17.06,0,0,0-3-.25C10,168,5.11,170,0,173.64v1.75c5.19-4,10.14-6.17,14.94-6.17a15.83,15.83,0,0,1,2.66.22c4.59.77,10.6,3.9,13.2,14.36,3.46,13.94-1.63,32.13-13.61,48.67A108.37,108.37,0,0,1,0,251v1.8A109.52,109.52,0,0,0,18.49,233.12Z"/><path class="cls-2" d="M3.45,224.39c9.11-12.56,15-29.44,9.31-34.54a2.86,2.86,0,0,0-2-.73c-2.69,0-6.54,3.27-10.79,8v2.16c4.44-5.12,8.45-8.86,10.79-8.86a1.21,1.21,0,0,1,.86.32c3.58,3.2,2.26,16.81-9.5,33-.67.91-1.39,1.86-2.15,2.82v2.27C1.27,227.3,2.42,225.81,3.45,224.39Z"/><path class="cls-2" d="M25.43,254.56c10.9-12.57,24.19-34.75,25.83-46.47.27-1.9.57-3.74.84-5.36,1.48-8.86,2.76-16.51-2.8-27.28-3.73-7.24-8.17-17.66-3.62-24.59,2.87-4.37,9.14-6.93,18.64-7.58,2.27-.16,4.51-.24,6.65-.24,24.34,0,42.64,10.14,61.19,33.91,19.38,24.84,34.22,36.69,76,45.77a.63.63,0,0,0,.19,0h0a.75.75,0,0,0,.74-.5.55.55,0,0,0-.06-.42.72.72,0,0,0-.49-.33c-41.25-9-55.91-20.69-75.06-45.23-9.44-12.1-18.92-20.68-29-26.22s-21.11-8.27-33.69-8.27c-2.12,0-4.34.08-6.58.24-10,.69-16.71,3.46-19.85,8.24-4.86,7.41-.3,18.21,3.56,25.68,5.39,10.45,4.2,17.59,2.69,26.62v.1c-.29,1.69-.58,3.44-.83,5.28C48.13,219.48,35,241.38,24.2,253.82c-1.84,2.11-3.92,4.23-6.17,6.34h2C22,258.3,23.81,256.43,25.43,254.56Z"/><path class="cls-2" d="M56,166.19c-1.61-3.08-2.77-5.3-2.34-7.4,1.11-5.47,6.44-8.13,16.3-8.13,1.65,0,3.13.08,4.22.13.66,0,1.29.06,1.7.06,19.51,0,33.64,13,48.85,32.48,21.78,27.9,39.24,38,81.23,47.19a11.27,11.27,0,0,0,2.31.25c4.5,0,8.39-2.73,9.45-6.63a7.81,7.81,0,0,0-1.13-6.51,9.68,9.68,0,0,0-6-3.92c-37.45-8.16-52.23-20.37-71.2-44.67-18.64-23.9-35.57-37.73-66.92-37.73h-2c-11.86,0-32.83,2.07-40.1,16-3.51,6.72.71,14.49,4.8,22a64.39,64.39,0,0,1,4.7,9.9c3.21,9.71,2.44,16.89.92,27.78s-11.18,27.91-24,42.31a109.11,109.11,0,0,1-11.38,10.9H7.57A107.1,107.1,0,0,0,18,250c13-14.57,22.77-31.82,24.33-42.93,1.33-9.56,2.48-17.81-1-28.25a66,66,0,0,0-4.79-10.09c-3.94-7.27-8-14.78-4.78-21,6.92-13.22,27.22-15.19,38.7-15.19h2c30.78,0,46.8,13,65.59,37.14,19.19,24.59,34.16,36.95,72.1,45.21a8.15,8.15,0,0,1,5.07,3.32,6.71,6.71,0,0,1,1,5.62,8.06,8.06,0,0,1-8,5.63,9.05,9.05,0,0,1-1.93-.21c-41.54-9-58.81-19.07-80.33-46.65-15.48-19.84-29.93-33-50.13-33-.35,0-.84,0-1.45-.06h-.16c-1.11-.06-2.63-.14-4.31-.14-10.58,0-16.57,3.1-17.8,9.19-.5,2.46.8,4.95,2.45,8.12,3.76,7.19,9.44,18.07,4,42.2-2.83,12.52-11.9,36.18-25.54,51.26H35c14.44-16.38,22.73-40.3,25.15-51C65.67,184.62,59.65,173.09,56,166.19Z"/><path class="cls-2" d="M84.92,216.87h-.49c-10.12.24-18.74,8.06-25.62,23.23a94.33,94.33,0,0,1-11.67,20.05h1.47a105,105,0,0,0,11.63-19.6c6.64-14.65,14.79-22.19,24.24-22.42h.45c13.84,0,26.9,15.5,33.88,28.77a122.69,122.69,0,0,0,8.06,13.25h1.77a121.67,121.67,0,0,1-8.43-13.76C113,232.78,99.5,216.87,84.92,216.87Z"/><path class="cls-2" d="M101.38,236.1c-4.65-5.8-9.43-8.74-14.21-8.74a11,11,0,0,0-1.28.08c-9.5,1-15.69,13.31-17.36,17.05a81.3,81.3,0,0,1-9.76,15.67h1.81A81.55,81.55,0,0,0,70,244.93c3.29-7.36,9.25-15.49,16.12-16.24a9.73,9.73,0,0,1,1.07-.06c4.26,0,8.62,2.75,13,8.17,4,5,7.46,11.39,11.09,18.14.92,1.7,1.86,3.45,2.84,5.22h1.67c-1.07-1.93-2.1-3.85-3.12-5.74C109,247.64,105.5,241.23,101.38,236.1Z"/><path class="cls-2" d="M88.56,239.65a10.23,10.23,0,0,0-1.09.06c-5.15.56-9.13,8-13.75,16.67-.66,1.25-1.34,2.52-2,3.78h1.67c.59-1.09,1.18-2.18,1.76-3.27,4.24-7.95,8.25-15.45,12.55-15.93.35,0,.68-.05,1-.05,4.07,0,7.11,2.89,13.23,19.25h1.6l0,0C98.75,247.43,95.5,239.65,88.56,239.65Z"/><path class="cls-2" d="M23.33,154.22c-.18-.67-.34-1.29-.46-1.82a2.3,2.3,0,0,0-2.42-1.86c-3.62,0-9.82,5.63-10.95,8.63-.51,1.38,0,2.08.52,2.44a2.45,2.45,0,0,0,1.35.27c.44,0,1,0,1.6-.07h.16c.85-.06,1.9-.13,3-.13a11.49,11.49,0,0,1,4.44.69,4.62,4.62,0,0,0,1.72.41,2,2,0,0,0,1.56-.65c1.13-1.27.48-4.18-.49-7.85Zm-.67,7.13-.09.09-.12,0-.19,0a2.91,2.91,0,0,1-1-.27,13.05,13.05,0,0,0-5.13-.83c-1.13,0-2.22.08-3.1.13-.71.05-1.28.08-1.66.08h-.58l0-.5a5.57,5.57,0,0,1,1.46-2.66c2.13-2.61,6.16-5.65,8.18-5.65.38,0,.76.1.92.83.12.55.29,1.18.48,1.91C23,158.9,23.22,160.74,22.66,161.35Z"/><path class="cls-2" d="M114.44,201.44a8.19,8.19,0,0,1,7.35-2.77c2.29.38,4.93,3.31,8.28,7,4.75,5.27,11.26,12.5,21.85,18.63,12.69,7.35,27.16,10.15,38.79,12.4A128.3,128.3,0,0,1,204.77,240a.87.87,0,0,0,.28.05.78.78,0,0,0,.72-.44.54.54,0,0,0,0-.42.74.74,0,0,0-.44-.37A129.36,129.36,0,0,0,191,235.49c-11.49-2.22-25.8-5-38.24-12.2-10.4-6-16.82-13.15-21.5-18.35-3.68-4.09-6.34-7-9.21-7.51a9.32,9.32,0,0,0-1.43-.11,9.76,9.76,0,0,0-7.47,3.4c-2.8,3.38-4.53,10.25,3.18,23.85,6.29,11.1,14.37,24.1,24.45,35.59h2.11c-7.82-8.78-16.31-20.48-25.18-36.13C109.94,210.29,112.33,204,114.44,201.44Z"/><path class="cls-2" d="M82.42,209.72h.29l-.29-.06Z"/><path class="cls-2" d="M89.9,161.55a47.12,47.12,0,0,0-14.41-2.63c-4.57,0-7.76,1.14-9.21,3.3-1.6,2.37-1,5.87,1.64,10.4,3.76,6.33,3.54,13.51,3.34,19.85-.17,5.69-.06,11.05,3.19,14.05,1.55,1.43,4.21,1.9,7.28,2.44l.86.15v0h.46c11.11,0,14.83-4.3,20-10.26l1-1.15,1-1.18a38.58,38.58,0,0,1,5.69-5.47c1.73-1.34,2.78-2.15,3.11-4.55C114.76,179.78,100.89,165.35,89.9,161.55Zm22.41,24.79c-.27,2-1,2.53-2.64,3.79a39.49,39.49,0,0,0-6,5.7l0,0-1,.84c-5.18,5.95-9.29,10.64-19.85,10.64h-.18c-1-.2-1.89-.33-2.7-.44-2-.28-3.54-.49-4.67-1.54-2.8-2.58-2.65-7.46-2.47-13.11.19-6.42.42-13.69-3.5-20.3-2.44-4.11-3-7.19-1.68-9.16,1.16-1.74,3.82-2.62,7.88-2.62a45.38,45.38,0,0,1,13.83,2.56c5,1.75,11,5.91,16,11.14C110,178.84,112.69,183.62,112.31,186.34Z"/><path class="cls-2" d="M89.91,169.37l-.18-.06c-3.74-1.29-8-2.75-10.88-2.75a3.49,3.49,0,0,0-3.1,1.23c-.82,1.23-.35,3.28,1.43,6.29,2.39,4,2.18,9.16,2,13.7s-.33,8.53,2.06,10.76a7.63,7.63,0,0,0,5.38,1.81h0c7.83,0,16-14.25,16.32-16.87C103.58,179,96.87,171.77,89.91,169.37Zm11.46,13.87c-.31,2.27-8.08,15.61-14.86,15.64a5.85,5.85,0,0,1-4.14-1.29c-2-1.84-1.83-5.74-1.66-9.86.18-4.67.39-9.95-2.16-14.26-1.89-3.18-1.84-4.52-1.47-5.09.26-.38.84-.57,1.77-.57,2.56,0,6.78,1.46,10.18,2.63l.11,0,.15.06C96.83,173.14,101.82,180,101.37,183.24Z"/><path class="cls-2" d="M88.54,177a1.6,1.6,0,0,0-.53-.09c-.85,0-1.45.62-1.78,1.84a13.37,13.37,0,0,0-.35,3.29c0,1.25.13,7.48,2.7,7.48,3.28,0,6-5.32,6.12-6.14C94.94,181.7,91.31,177.94,88.54,177Zm4.66,6.19,0,.06c-.21,1-2.49,4.53-4.23,5l-.3.07-.19-.25c-1-1.43-1.45-7.61-.63-9.44l.19-.42.42.2c2,.95,4.71,3.77,4.76,4.76Z"/><path class="cls-2" d="M68.11,209.64a5.13,5.13,0,0,0-1.92.38l-.26.11-.09.13c-3.13,5.34-3.25,7.26-2.8,7.93.13.19.36.4,1.1.4a.87.87,0,0,1,.36.09c2.48-.42,8.7-3.48,9.46-5.18a.92.92,0,0,0-.12-1A8.24,8.24,0,0,0,68.11,209.64Zm4.13,3.88c-1.1,1.13-5.12,3.19-7.21,3.84l-.79.25.21-.8A27.65,27.65,0,0,1,67,211.25l.09-.17.19-.05a3.31,3.31,0,0,1,.83-.1,6.79,6.79,0,0,1,4.12,1.93l.33.32Z"/><path class="cls-2" d="M101.94,208.76a1,1,0,0,0-.48.12l-.08,0h-.08a6.74,6.74,0,0,0-2.69,1.29A2.41,2.41,0,0,0,97.48,212a3.1,3.1,0,0,0,1.15,2.39,17.22,17.22,0,0,0,4.85,3,3.22,3.22,0,0,0,1.21.24,2,2,0,0,0,1.53-.62c.64-.73.52-2.32-.32-4.16C104.86,210.55,103.12,208.76,101.94,208.76Zm2.93,7.49-.58-.17a9.33,9.33,0,0,1-2.51-1.35l-.65-.43a6,6,0,0,1-1.86-1.61c-.53-.83.53-1.57,1.1-2l.25-.18.34-.24a3.53,3.53,0,0,0,.34-.24l.21-.15.39.16a1.59,1.59,0,0,1,.45.3,6.47,6.47,0,0,1,1.29,1.71,7.58,7.58,0,0,1,1.24,3.56Z"/><path class="cls-2" d="M104.61,216l0-.1C104.57,216,104.63,216,104.61,216Z"/><path class="cls-2" d="M135.35,235.15c-8.21-11.42-8.86-15.17-8.74-16.27l-.26-.35.6-.2a1,1,0,0,1,.31-.05c1.46,0,5.62,2.2,12.56,8.39,13.71,12.24,56.22,23.39,67.86,24.5h.08a.74.74,0,0,0,.76-.58.61.61,0,0,0-.12-.41.8.8,0,0,0-.55-.28c-5.47-.52-18.78-3.49-32.66-8-16.33-5.26-28.49-11-34.26-16.14-8.16-7.29-12-8.82-13.76-8.82a2,2,0,0,0-1.31.43c-.44.31-1.17.84-.57,3.16.81,3.15,3.75,8.27,8.76,15.22a147,147,0,0,0,21.35,24.36h2.21A146.91,146.91,0,0,1,135.35,235.15Z"/><path class="cls-2" d="M203.62,259.64c-23.28-3.21-36.4-9.23-42.14-12.54a4.44,4.44,0,0,0-1.9-.74,1,1,0,0,0-.51.13.68.68,0,0,0-.37.72c.17,1.15,7,7.06,17.11,13h2.59A109.73,109.73,0,0,1,165,251.43l.47-.78c6.36,3,17.11,6.89,33.14,9.51h5.64a.69.69,0,0,0-.09-.23A.82.82,0,0,0,203.62,259.64Z"/></g></g></svg>