<svg xmlns="http://www.w3.org/2000/svg" viewBox="0 0 43.81 52.57"><defs><style>.cls-1{fill:#fff;}</style></defs><g id="Layer_2" data-name="Layer 2"><g id="Layer_1-2" data-name="Layer 1"><path class="cls-1" d="M21.9,0C8.76,0,0,4.48,0,4.48v26.3c0,13,21.9,21.79,21.9,21.79s21.91-8.76,21.91-21.79V4.48S35.05,0,21.9,0ZM41.62,30.41c0,12-19.72,20-19.72,20s-19.71-8-19.71-20V6.57A44,44,0,0,1,21.9,2.19,44,44,0,0,1,41.62,6.57Z"/><g id="g7258"><g id="path7260"><path class="cls-1" d="M16.91,19.58a.32.32,0,1,1-.32.32.31.31,0,0,1,.32-.32"/></g></g><g id="g7266"><g id="path7268"><path class="cls-1" d="M20.11,19.58a.32.32,0,1,1,0,.63.32.32,0,0,1,0-.63"/></g></g><g id="g7274"><g id="path7276"><path class="cls-1" d="M26.9,19.58a.32.32,0,1,0,0,.63.32.32,0,1,0,0-.63"/></g></g><g id="g7282"><g id="path7284"><path class="cls-1" d="M23.69,19.58a.32.32,0,1,0,.32.32.31.31,0,0,0-.32-.32"/></g></g><path class="cls-1" d="M27.73,20.2c-.07.26-.22.44-.39.44s-.3-.15-.38-.38H26.9a.37.37,0,0,1-.28-.13.61.61,0,0,1-.54.51.58.58,0,0,1-.52-.41h0a.57.57,0,0,1-.34-.1.71.71,0,0,1-1.33.09.34.34,0,0,1-.18,0,.37.37,0,0,1-.21-.06.75.75,0,0,1-.69.44.77.77,0,0,1-.7-.46.53.53,0,0,1-.38,0,.78.78,0,0,1-.7.45.77.77,0,0,1-.69-.44.37.37,0,0,1-.21.06.29.29,0,0,1-.18-.05.71.71,0,0,1-.65.43.73.73,0,0,1-.68-.52.56.56,0,0,1-.33.1h0a.58.58,0,0,1-.51.42.62.62,0,0,1-.55-.5.33.33,0,0,1-.27.12h-.07c-.07.23-.22.38-.38.38s-.32-.18-.39-.45l-.24-.13v.87H28v-.86Z"/><polygon class="cls-1" points="28.41 22.16 28.03 21.5 27.2 22.16 28.03 22.82 28.41 22.16"/><path class="cls-1" d="M19.06,21.73H18c-.12,0-.22.2-.22.44s.1.45.22.45h1c.12,0,.23-.21.23-.45S19.18,21.73,19.06,21.73Zm-.11.79h-.83c-.12,0-.22-.16-.22-.35s.1-.34.22-.34H19c.13,0,.23.15.23.34S19.08,22.52,19,22.52Z"/><polygon class="cls-1" points="22.99 22.16 21.9 21.49 20.8 22.16 21.9 22.82 22.99 22.16"/><path class="cls-1" d="M19,21.88h-.83c-.09,0-.17.13-.17.29s.08.3.17.3H19c.1,0,.18-.14.18-.3S19.05,21.88,19,21.88Z"/><path class="cls-1" d="M25.76,21.73h-1c-.12,0-.23.2-.23.44s.11.45.23.45h1c.12,0,.22-.21.22-.45S25.88,21.73,25.76,21.73Zm-.1.79h-.83c-.13,0-.23-.16-.23-.35s.1-.34.23-.34h.83c.13,0,.22.15.22.34S25.79,22.52,25.66,22.52Z"/><polygon class="cls-1" points="16.58 22.16 15.76 21.5 15.38 22.16 15.76 22.82 16.58 22.16"/><path class="cls-1" d="M25.66,21.88h-.83c-.1,0-.18.13-.18.29s.08.3.18.3h.83c.1,0,.17-.14.17-.3S25.76,21.88,25.66,21.88Z"/><path class="cls-1" d="M15.84,21.42H28a.22.22,0,0,0,.22-.22A.22.22,0,0,0,28,21H15.84a.21.21,0,0,0-.22.22A.22.22,0,0,0,15.84,21.42Z"/><path class="cls-1" d="M28,22.9H15.84a.21.21,0,0,0-.22.22.22.22,0,0,0,.22.23H28a.23.23,0,0,0,.22-.23A.22.22,0,0,0,28,22.9Z"/><path class="cls-1" d="M27.77,22.85H28l-.87-.69.86-.69h-.22l-.85.68.85.67Z"/><path class="cls-1" d="M16,21.48h-.21l.85.69-.86.69H16v0l.84-.67L16,21.48Z"/><path class="cls-1" d="M20.3,22.16l1.12-.68H16.1l.85.68-.86.69h5.34Zm-2.95.19a.19.19,0,0,1-.2-.19.2.2,0,0,1,.4,0A.19.19,0,0,1,17.35,22.35Zm1.71.32H18c-.15,0-.27-.22-.27-.5s.12-.49.27-.49h1c.16,0,.28.21.28.49S19.21,22.67,19.06,22.67Zm.8-.32a.2.2,0,1,1,.19-.19A.2.2,0,0,1,19.86,22.35Z"/><path class="cls-1" d="M21.52,22.85h.32l-1.14-.69,1.12-.68h-.31l-1.11.68,1.11.67A0,0,0,0,1,21.52,22.85Z"/><path class="cls-1" d="M22.28,22.83l1.11-.67-1.11-.68H22l1.12.68L22,22.85h.31A0,0,0,0,0,22.28,22.83Z"/><path class="cls-1" d="M26.83,22.16l.85-.68H22.37l1.12.68-1.13.69H27.7Zm-2.9.19a.19.19,0,0,1-.19-.19.19.19,0,0,1,.19-.2.2.2,0,1,1,0,.39Zm1.83.32h-1c-.15,0-.28-.22-.28-.5s.13-.49.28-.49h1c.16,0,.27.21.27.49S25.91,22.67,25.76,22.67Zm.68-.32a.19.19,0,0,1-.2-.19.2.2,0,1,1,.39,0A.19.19,0,0,1,26.44,22.35Z"/><path class="cls-1" d="M25.56,18.59a2.58,2.58,0,0,0-.18-.46.35.35,0,0,0-.08.13,2.89,2.89,0,0,1,.18.44.94.94,0,0,1,.1-.1S25.56,18.6,25.56,18.59Z"/><path class="cls-1" d="M25.9,17.91a.29.29,0,0,1-.19-.07,1.42,1.42,0,0,0-.3.25,2.22,2.22,0,0,1,.2.48h0l.52-.43a.57.57,0,0,0-.15-.26Z"/><path class="cls-1" d="M18.27,19.1a.53.53,0,1,0,.52.52A.52.52,0,0,0,18.27,19.1Zm.3.6a.3.3,0,0,1-.29.23A.31.31,0,0,1,18,19.8a.29.29,0,0,1,0-.16.3.3,0,1,1,.59,0A.13.13,0,0,1,18.57,19.7Z"/><path class="cls-1" d="M18.27,19a.65.65,0,0,1,.31.08,1.73,1.73,0,0,0,.13-.84.14.14,0,0,0-.15.05,1.18,1.18,0,0,0-.58-.55.68.68,0,0,0-.34.55.19.19,0,0,0-.17-.05,2.63,2.63,0,0,0,.5.84A.61.61,0,0,1,18.27,19Z"/><path class="cls-1" d="M17.67,19.62a.6.6,0,0,1,.27-.49,1.31,1.31,0,0,0-.51-.21.77.77,0,0,0,.1.28c-.14.06-.15.22-.21.44.16.2.25.35.44.42a.69.69,0,0,0,0,.28,1.91,1.91,0,0,0,.28-.15A.62.62,0,0,1,17.67,19.62Z"/><path class="cls-1" d="M19.46,19.64c-.15-.22-.23-.38-.4-.44a.7.7,0,0,0,0-.28.75.75,0,0,0-.42.22.58.58,0,0,1,.25.48.6.6,0,0,1-.16.41,2.11,2.11,0,0,0,.59.31.71.71,0,0,0-.09-.28C19.36,20,19.39,19.84,19.46,19.64Z"/><path class="cls-1" d="M15.87,19.62a.65.65,0,0,1-.1.34,3.11,3.11,0,0,0,.79.38,1.23,1.23,0,0,0-.23-.28c.1-.08,0-.23,0-.43-.26-.22-.24-.39-.43-.45a1.64,1.64,0,0,0-.16-.28.89.89,0,0,0-.35.13A.61.61,0,0,1,15.87,19.62Z"/><path class="cls-1" d="M15.21,19c-.08-.26-.22-.38-.4-.79-.06,0-.26.06-.27.11a1.61,1.61,0,0,0-1.31-.3,5.08,5.08,0,0,0,1.47,1.33A.58.58,0,0,1,15.21,19Z"/><path class="cls-1" d="M15.26,19.08a.55.55,0,0,0-.54.55.54.54,0,1,0,1.08,0A.55.55,0,0,0,15.26,19.08Zm0,.84a.29.29,0,0,1-.29-.29.29.29,0,1,1,.58,0A.29.29,0,0,1,15.26,19.92Z"/><path class="cls-1" d="M21.9,19.08a.54.54,0,0,0-.54.54.54.54,0,0,0,1.08,0A.54.54,0,0,0,21.9,19.08Zm0,.85a.31.31,0,1,1,.3-.3A.3.3,0,0,1,21.9,19.93Z"/><path class="cls-1" d="M25.54,19.08a.55.55,0,0,0-.55.54.55.55,0,0,0,.55.55.55.55,0,0,0,.54-.55A.54.54,0,0,0,25.54,19.08Zm0,.83a.3.3,0,1,1,.29-.29A.29.29,0,0,1,25.54,19.91Z"/><path class="cls-1" d="M28.55,19.07a.56.56,0,1,0,.55.55A.55.55,0,0,0,28.55,19.07Zm0,.84a.3.3,0,1,1,.29-.29A.29.29,0,0,1,28.57,19.91Z"/><path class="cls-1" d="M21.9,19a.67.67,0,0,1,.36.12,2,2,0,0,0,.4-.86.24.24,0,0,0-.2.05c-.05-.26-.35-.46-.55-.55-.21.09-.51.29-.56.55a.24.24,0,0,0-.2-.05,1.84,1.84,0,0,0,.4.85A.61.61,0,0,1,21.9,19Z"/><path class="cls-1" d="M23.21,19.64c-.13-.22-.18-.38-.38-.44a.61.61,0,0,0,.06-.28,1.33,1.33,0,0,0-.6.23.65.65,0,0,1,.22.47.62.62,0,0,1-.22.47,1.94,1.94,0,0,0,.53.25.65.65,0,0,0,0-.28C23,20,23.07,19.84,23.21,19.64Z"/><path class="cls-1" d="M21.29,19.62a.6.6,0,0,1,.23-.47,1.33,1.33,0,0,0-.6-.23.61.61,0,0,0,.06.28c-.2.06-.25.22-.38.44.14.2.21.35.42.42a.65.65,0,0,0,0,.28,2.66,2.66,0,0,0,.53-.24A.6.6,0,0,1,21.29,19.62Z"/><path class="cls-1" d="M25.54,19a.57.57,0,0,1,.29.08,2.51,2.51,0,0,0,.52-.86.19.19,0,0,0-.17.05.7.7,0,0,0-.35-.56,1.25,1.25,0,0,0-.58.56.15.15,0,0,0-.16-.05,1.86,1.86,0,0,0,.14.87A.54.54,0,0,1,25.54,19Z"/><path class="cls-1" d="M26.5,19.63c-.05-.22-.07-.39-.21-.45a1,1,0,0,0,.11-.28,1.12,1.12,0,0,0-.53.21.63.63,0,0,1,.28.51.62.62,0,0,1-.39.57,1.22,1.22,0,0,0,.27.15,1,1,0,0,0,0-.28C26.25,20,26.34,19.83,26.5,19.63Z"/><path class="cls-1" d="M25.08,20a.62.62,0,0,1,.11-.91.69.69,0,0,0-.44-.22.89.89,0,0,0,0,.28c-.18.06-.26.23-.41.45.07.2.1.35.25.43a.66.66,0,0,0-.09.28A2.11,2.11,0,0,0,25.08,20Z"/><path class="cls-1" d="M29.27,18.34c0-.05-.21-.12-.28-.11-.17.41-.31.53-.39.79a.58.58,0,0,1,.5.35A5,5,0,0,0,30.58,18,1.61,1.61,0,0,0,29.27,18.34Z"/><path class="cls-1" d="M28,20a.65.65,0,0,1-.1-.34.6.6,0,0,1,.48-.59,1,1,0,0,0-.35-.13.9.9,0,0,0-.16.28c-.19.06-.17.23-.43.45-.05.2-.1.35,0,.43a1.23,1.23,0,0,0-.23.28A3.28,3.28,0,0,0,28,20Z"/><path class="cls-1" d="M19,14.22a7.16,7.16,0,0,1-1.41-.17.61.61,0,0,0-.05.12,6.79,6.79,0,0,0,1.46.17A6.61,6.61,0,0,0,21,14l-.06-.11A6.38,6.38,0,0,1,19,14.22Z"/><path class="cls-1" d="M19,14.17a6.58,6.58,0,0,0,1.95-.31.91.91,0,0,0-.11-.16h0l-.06-.09h-.06a.25.25,0,0,1-.25-.25s0,0,0,0l-.32-.17h0a.37.37,0,0,0-.34.25.33.33,0,0,0-.28-.15.37.37,0,0,0-.31.18.35.35,0,0,0-.58-.06.35.35,0,0,0-.22-.19l-.16.09h.06a.25.25,0,0,1,.25.25,0,0,0,0,0,0,0l0,0a.26.26,0,0,1-.24.19.25.25,0,0,1-.25-.25.21.21,0,0,1,0-.12,1.47,1.47,0,0,0-.29.32h0l0,0h0a1.59,1.59,0,0,0-.13.22A6.87,6.87,0,0,0,19,14.17Zm1.12-.92a.26.26,0,1,1-.25.26A.26.26,0,0,1,20.07,13.25Zm-.62.11a.25.25,0,0,1,.25.25.25.25,0,1,1-.5,0A.25.25,0,0,1,19.45,13.36Zm-.86.17a.25.25,0,1,1,0,.06,0,0,0,0,0,0,0Z"/><path class="cls-1" d="M24.85,14.17a7.06,7.06,0,0,0,1.4-.17,1.59,1.59,0,0,0-.13-.22h0l0,0h0a1.47,1.47,0,0,0-.29-.32.21.21,0,0,1,0,.12.25.25,0,0,1-.25.25.26.26,0,0,1-.24-.19l0,0s0,0,0,0a.25.25,0,0,1,.25-.25h.06l-.16-.1a.35.35,0,0,0-.22.19.36.36,0,0,0-.59.06.36.36,0,0,0-.3-.18.36.36,0,0,0-.29.15.34.34,0,0,0-.33-.25h0l-.22.11h0l-.09.06v0a.25.25,0,0,1-.25.25h-.05l0,0h0l0,0h0a.91.91,0,0,0-.11.16A6.63,6.63,0,0,0,24.85,14.17Zm.13-.83a.26.26,0,0,1,.24.19l0,0a0,0,0,0,0,0,0,.26.26,0,1,1-.25-.25Zm-.62,0a.25.25,0,0,1,.25.25.25.25,0,0,1-.5,0A.25.25,0,0,1,24.36,13.36Zm-.62-.11a.26.26,0,1,1-.25.26A.26.26,0,0,1,23.74,13.25Z"/><path class="cls-1" d="M24.85,14.22a6.38,6.38,0,0,1-2-.32l-.06.11a6.67,6.67,0,0,0,2,.33,6.81,6.81,0,0,0,1.47-.17l-.05-.12A7.17,7.17,0,0,1,24.85,14.22Z"/><path class="cls-1" d="M15.29,13.79a4.58,4.58,0,0,1,.89.1,1,1,0,0,0,.07-.15,5.38,5.38,0,0,0-1-.13c-.9,0-2,.37-2,1.41a2.16,2.16,0,0,0,1.6,2s0,0,0,0a4.08,4.08,0,0,0,0,1.16h0a1.87,1.87,0,0,0,.18.35,6.75,6.75,0,0,1,0-1.62,2,2,0,0,1-1.57-1.76C13.47,14.21,14.22,13.79,15.29,13.79Z"/><path class="cls-1" d="M28.52,13.79a4.68,4.68,0,0,0-.9.1,1,1,0,0,0-.07-.15,5.58,5.58,0,0,1,1-.13c.91,0,2,.37,2,1.41A2.15,2.15,0,0,1,29,17s0,0,0,0a4.08,4.08,0,0,1,0,1.16h0a2.75,2.75,0,0,1-.18.35,6.75,6.75,0,0,0,0-1.62,2,2,0,0,0,1.57-1.76C30.34,14.21,29.59,13.79,28.52,13.79Z"/><path class="cls-1" d="M15.21,13.56a5.07,5.07,0,0,1,1.07.14.37.37,0,0,1,.1-.17l.11-.16h0a.25.25,0,1,1,.2-.41l.08-.06a.35.35,0,0,0-.28-.14.33.33,0,0,0-.25.12.35.35,0,0,0-.34-.25.37.37,0,0,0-.28.13.35.35,0,0,0-.33-.22.34.34,0,0,0-.29.16.35.35,0,0,0-.64,0,.35.35,0,0,0-.64.16.31.31,0,0,0-.21-.07.35.35,0,0,0-.35.35v0a.32.32,0,0,0-.14,0,.35.35,0,0,0-.35.35v.05l0,0h0a.36.36,0,0,0-.36.35.21.21,0,0,0,0,.12,2.26,2.26,0,0,0-.11.22.36.36,0,0,0-.09.24v.06a2.31,2.31,0,0,0,0,.46,3.71,3.71,0,0,0,1.57,2.86l0,0a1.74,1.74,0,0,1,.94.32h0a.61.61,0,0,1,.27-.08,3.5,3.5,0,0,1,0-1.12,2.2,2.2,0,0,1-1.62-2C13.19,14.13,14,13.56,15.21,13.56Zm.64-.82a.25.25,0,1,1-.25.25A.25.25,0,0,1,15.85,12.74Zm-.61-.09a.25.25,0,1,1-.25.25A.26.26,0,0,1,15.24,12.65Zm-.6,0a.26.26,0,1,1-.25.25A.25.25,0,0,1,14.64,12.62ZM14,12.7a.25.25,0,1,1-.25.25A.25.25,0,0,1,14,12.7Zm-1.46,1a.25.25,0,1,1-.26.25A.25.25,0,0,1,12.56,13.72Zm-.18.58a.25.25,0,0,1,.25.25.25.25,0,0,1-.5,0A.25.25,0,0,1,12.38,14.3Zm-.21.86a.25.25,0,0,1,.25-.25.25.25,0,0,1,.25.25.26.26,0,0,1-.13.22l0,0h-.09A.25.25,0,0,1,12.17,15.16Zm.21.56a.25.25,0,0,1,.13-.22.05.05,0,0,0,0,0h.1a.26.26,0,0,1,.25.26.24.24,0,0,1-.14.22h0l-.08,0A.25.25,0,0,1,12.38,15.72Zm.23.55a.23.23,0,0,1,.14-.22h.11a.25.25,0,1,1-.25.25Zm1.29,1.17a.26.26,0,0,1,.17-.07.25.25,0,1,1-.25.25.24.24,0,0,1,0-.14v0Zm0-.21a.3.3,0,0,1,0,.15v0h0a.23.23,0,0,1-.17.07.25.25,0,1,1,.25-.25Zm-.63-.72a.25.25,0,1,1-.25.25A.25.25,0,0,1,13.24,16.51ZM13,13.78a.25.25,0,0,1,0-.5.22.22,0,0,1,.19.09l0,0v0a.27.27,0,0,1,0,.12A.25.25,0,0,1,13,13.78Zm.3-.43h0v0a.19.19,0,0,1,0-.12.26.26,0,1,1,.25.25A.25.25,0,0,1,13.27,13.35Z"/><path class="cls-1" d="M31.78,14.62v-.07a.37.37,0,0,0-.1-.24,2.14,2.14,0,0,0-.1-.22.22.22,0,0,0,0-.12.35.35,0,0,0-.35-.35h0l-.05,0a.09.09,0,0,0,0-.05.35.35,0,0,0-.35-.35.4.4,0,0,0-.15,0v0a.36.36,0,0,0-.36-.35.27.27,0,0,0-.2.07.36.36,0,0,0-.35-.31.35.35,0,0,0-.29.15.36.36,0,0,0-.33-.23.35.35,0,0,0-.31.19.34.34,0,0,0-.3-.16.35.35,0,0,0-.33.22.34.34,0,0,0-.27-.13.35.35,0,0,0-.34.25.36.36,0,0,0-.26-.12.35.35,0,0,0-.27.14l.08.06a.22.22,0,0,1,.19-.09.25.25,0,0,1,0,.5h0l.11.16a.37.37,0,0,1,.1.17,5.07,5.07,0,0,1,1.06-.14c1.23,0,2,.57,2,1.46a2.19,2.19,0,0,1-1.61,2,4.19,4.19,0,0,1,0,1.12.61.61,0,0,1,.27.08h0a1.74,1.74,0,0,1,.94-.32l0,0a3.71,3.71,0,0,0,1.57-2.86A2.14,2.14,0,0,0,31.78,14.62ZM28,13.24a.25.25,0,1,1,.25-.25A.26.26,0,0,1,28,13.24Zm.6-.09a.25.25,0,1,1,.25-.25A.25.25,0,0,1,28.56,13.15Zm.61,0a.26.26,0,1,1,.25-.26A.26.26,0,0,1,29.17,13.13Zm2.08.59A.25.25,0,1,1,31,14,.25.25,0,0,1,31.25,13.72Zm-1.46-.52A.25.25,0,1,1,30,13,.25.25,0,0,1,29.79,13.2Zm.76.13v0a.25.25,0,0,1-.2.09.25.25,0,1,1,.25-.25.27.27,0,0,1,0,.12Zm0,.2a.28.28,0,0,1,0-.12s0,0,0,0,0,0,0,0a.25.25,0,1,1,.2.41A.26.26,0,0,1,30.58,13.53Zm-.84,4.34a.25.25,0,0,1,0-.5.28.28,0,0,1,.17.07h0s0,0,0,0a.24.24,0,0,1,0,.14A.25.25,0,0,1,29.74,17.87Zm.45-.39a.22.22,0,0,1-.17-.07h0a0,0,0,0,1,0,0,.3.3,0,0,1,0-.15.25.25,0,1,1,.25.25Zm.38-.47a.25.25,0,1,1,.25-.25A.25.25,0,0,1,30.57,17Zm.38-.49a.25.25,0,0,1,0-.5h.11a.23.23,0,0,1,.14.22A.25.25,0,0,1,31,16.52Zm.23-.55-.08,0h0a.25.25,0,0,1-.15-.22.26.26,0,0,1,.26-.26h.09s0,0,0,0a.25.25,0,0,1,.13.22A.26.26,0,0,1,31.18,16Zm.21-.56h-.1l0,0a.26.26,0,0,1-.13-.22.25.25,0,1,1,.25.25Zm0-.61a.25.25,0,0,1-.25-.25.25.25,0,0,1,.5,0A.25.25,0,0,1,31.43,14.8Z"/><path class="cls-1" d="M21.9,13.32a1.08,1.08,0,0,0,1-.68h-2A1.08,1.08,0,0,0,21.9,13.32Z"/><path class="cls-1" d="M21.68,10.24a2.36,2.36,0,0,1-.26.93h0a1.22,1.22,0,0,1,.43-.08,1.26,1.26,0,0,1,.43.08h0a2.21,2.21,0,0,1-.26-.94,2.21,2.21,0,0,1,.94.27,1.65,1.65,0,0,1,0-1,2,2,0,0,1-.93.26,2.23,2.23,0,0,1,.26-.94,1.5,1.5,0,0,1-1,0,2.38,2.38,0,0,1,.26.94,2.38,2.38,0,0,1-.94-.26,1.7,1.7,0,0,1,0,1A2.22,2.22,0,0,1,21.68,10.24Z"/><path class="cls-1" d="M23,12.26h-.93v-1.1l-.15,0-.16,0v1.1h-.93a1.91,1.91,0,0,0,.06.33h2.05A1,1,0,0,0,23,12.26Z"/><path class="cls-1" d="M22.1,11.16v1.05H23A1.09,1.09,0,0,0,22.1,11.16Z"/><path class="cls-1" d="M20.81,12.21h.87V11.16A1.09,1.09,0,0,0,20.81,12.21Z"/><path class="cls-1" d="M20.24,17.13s0,0,0,0,0,0,0,0a3,3,0,0,0,1.1-2.22,2,2,0,0,0-2.21-2.07,2,2,0,0,0-1.94,1.92A3.27,3.27,0,0,0,19,17.38s0,0,0,0,0,0,0,0a2.31,2.31,0,0,0-.56.65l.07.12a2.42,2.42,0,0,1,.73-.79,3.36,3.36,0,0,1-1.93-2.68,1.82,1.82,0,0,1,1.8-1.79,1.86,1.86,0,0,1,2.06,1.94A3.06,3.06,0,0,1,20,17.11a11,11,0,0,1,1.28,1.1v0A6.82,6.82,0,0,0,20.24,17.13Z"/><path class="cls-1" d="M24.78,17.42s0,0,0,0v0a3.26,3.26,0,0,0,1.83-2.66,2,2,0,0,0-1.94-1.92,2,2,0,0,0-2.21,2.07,3,3,0,0,0,1.11,2.22s0,0,0,0,0,0,0,0a6.42,6.42,0,0,0-1.09,1.05v0a11.65,11.65,0,0,1,1.27-1.09,3.1,3.1,0,0,1-1.16-2.24,1.87,1.87,0,0,1,2.07-1.94,1.81,1.81,0,0,1,1.79,1.79,3.36,3.36,0,0,1-1.93,2.68,2.58,2.58,0,0,1,.72.78l.08-.12A2.4,2.4,0,0,0,24.78,17.42Z"/><path class="cls-1" d="M27.5,13.74a.37.37,0,0,0-.11-.18,2,2,0,0,0-.17-.23.25.25,0,0,0,0-.08.36.36,0,0,0-.35-.36h-.07a.5.5,0,0,0,0-.12.35.35,0,0,0-.35-.35l-.13,0s0,0,0,0A.36.36,0,0,0,26,12a.28.28,0,0,0-.18.06.36.36,0,0,0-.36-.35.38.38,0,0,0-.28.14.35.35,0,0,0-.32-.21.35.35,0,0,0-.32.19.34.34,0,0,0-.29-.16.35.35,0,0,0-.34.26.32.32,0,0,0-.26-.12.35.35,0,0,0-.35.3A.36.36,0,0,0,23,12h0s0,.07,0,.1h0a.25.25,0,0,1,0,.5H23l0,.07h0a1.13,1.13,0,0,1-2.05,0l0-.08h-.08a.25.25,0,0,1,0-.5h0s0-.07,0-.1h0a.33.33,0,0,0-.26.11.36.36,0,0,0-.35-.29.35.35,0,0,0-.26.11.36.36,0,0,0-.34-.25.37.37,0,0,0-.3.16.33.33,0,0,0-.31-.2.34.34,0,0,0-.32.22.36.36,0,0,0-.29-.14.35.35,0,0,0-.35.35.31.31,0,0,0-.19-.06.35.35,0,0,0-.35.35.13.13,0,0,0,0,.06l-.13,0a.35.35,0,0,0-.35.35.3.3,0,0,0,0,.1l0,0h-.05a.35.35,0,0,0-.35.35v.06l-.16.23a.28.28,0,0,0-.11.17A2.74,2.74,0,0,0,16,15a15,15,0,0,0,.58,2.39c.28.18.67.44,1.06.72a.76.76,0,0,1,.13-.23l0,0a.24.24,0,0,1-.14-.23.26.26,0,1,1,.51,0,.23.23,0,0,1-.06.16h0l0,0h0l0,0h0a1.21,1.21,0,0,1,.24.21A2.48,2.48,0,0,1,19,17.4a3.29,3.29,0,0,1-1.83-2.68,2,2,0,0,1,2-2,2.08,2.08,0,0,1,2.27,2.13,3.1,3.1,0,0,1-1.11,2.24,6.07,6.07,0,0,1,1.06,1,1.39,1.39,0,0,1,.26-.28.31.31,0,0,1,.3-.24.3.3,0,1,1,0-.6.31.31,0,0,1,0-.61.29.29,0,0,1-.3-.3.3.3,0,0,1,.3-.3.3.3,0,0,1-.3-.3.29.29,0,0,1,.3-.3.31.31,0,0,1,0-.61.3.3,0,1,1,0-.6.3.3,0,0,1-.3-.3.3.3,0,1,1,.6,0,.3.3,0,0,1-.3.3.3.3,0,0,1,0,.6.31.31,0,0,1,0,.61.29.29,0,0,1,.3.3.3.3,0,0,1-.3.3.3.3,0,0,1,.3.3.29.29,0,0,1-.3.3.31.31,0,0,1,0,.61.3.3,0,0,1,0,.6.31.31,0,0,1,.3.25.87.87,0,0,1,.24.27,6.86,6.86,0,0,1,1.06-1,3.08,3.08,0,0,1-1.1-2.24,2.08,2.08,0,0,1,2.26-2.13,2,2,0,0,1,2,2,3.28,3.28,0,0,1-1.82,2.68,2.6,2.6,0,0,1,.53.62,1.43,1.43,0,0,1,.27-.23l.05,0a.25.25,0,0,1-.05-.15.26.26,0,1,1,.51,0,.22.22,0,0,1-.12.21l0,.05a1,1,0,0,1,.13.23c.38-.28.76-.53,1-.71A13.9,13.9,0,0,0,27.81,15,2.67,2.67,0,0,0,27.5,13.74Zm-10.88-.2a.26.26,0,0,1,0,.51.26.26,0,1,1,0-.51Zm-.17.58a.26.26,0,1,1-.26.26A.26.26,0,0,1,16.45,14.12Zm-.2.87a.26.26,0,1,1,.51,0,.26.26,0,1,1-.51,0Zm.14.58a.26.26,0,1,1,.25.26A.26.26,0,0,1,16.39,15.57Zm.22.55a.26.26,0,1,1,.26.26A.26.26,0,0,1,16.61,16.12Zm1.15,1.05a.26.26,0,0,1-.26.26.26.26,0,0,1-.26-.26.26.26,0,0,1,.26-.26A.25.25,0,0,1,17.76,17.17Zm-.6-.77a.26.26,0,0,1,0,.52.26.26,0,0,1,0-.52Zm-.23-2.88a.25.25,0,1,1,.25-.25A.25.25,0,0,1,16.93,13.52Zm.4-.46a.25.25,0,1,1,.25-.25A.25.25,0,0,1,17.33,13.06Zm.47-.38a.26.26,0,1,1,.26-.26A.26.26,0,0,1,17.8,12.68Zm.54-.3a.25.25,0,1,1,.25-.25A.25.25,0,0,1,18.34,12.38Zm.61-.07a.26.26,0,1,1,.25-.25A.25.25,0,0,1,19,12.31Zm.61,0a.25.25,0,1,1,.25-.25A.25.25,0,0,1,19.56,12.34Zm.6.14a.25.25,0,1,1,.25-.25A.25.25,0,0,1,20.16,12.48Zm3.49,0a.25.25,0,1,1,.25-.25A.25.25,0,0,1,23.65,12.45Zm.6-.14a.25.25,0,1,1,.25-.25A.25.25,0,0,1,24.25,12.31Zm.61,0a.25.25,0,0,1,0-.5.25.25,0,0,1,0,.5Zm2.76,2.1a.26.26,0,1,1-.26-.26A.26.26,0,0,1,27.62,14.38Zm-.17-.59a.26.26,0,1,1-.26-.25A.26.26,0,0,1,27.45,13.79Zm-2-1.44a.25.25,0,1,1,.26-.25A.25.25,0,0,1,25.46,12.35Zm.54.3a.25.25,0,0,1,0-.5.25.25,0,0,1,0,.5Zm.23.13a.25.25,0,1,1,.25.25A.25.25,0,0,1,26.23,12.78Zm.4.47a.25.25,0,1,1,.25.25A.26.26,0,0,1,26.63,13.25Zm-.32,4.18a.26.26,0,0,1-.26-.26.26.26,0,1,1,.51,0A.26.26,0,0,1,26.31,17.43Zm.34-.51a.26.26,0,1,1,.25-.26A.26.26,0,0,1,26.65,16.92Zm.29-.54a.26.26,0,1,1,.26-.26A.26.26,0,0,1,26.94,16.38Zm.22-.55a.26.26,0,1,1,.26-.26A.26.26,0,0,1,27.16,15.83Zm.14-.58a.26.26,0,0,1-.25-.26.26.26,0,1,1,.51,0A.26.26,0,0,1,27.3,15.25Z"/><path class="cls-1" d="M25.31,28.67H18.49a.43.43,0,0,0,0,.86h6.82a.43.43,0,0,0,0-.86Z"/><path class="cls-1" d="M29.08,27H14.63a2.1,2.1,0,1,0,2.31,2.09.43.43,0,0,0-.86,0,1.24,1.24,0,1,1-1.34-1.24H29.07a1.24,1.24,0,1,1-1.34,1.24.43.43,0,0,0-.43-.43.43.43,0,0,0-.43.43A2.1,2.1,0,1,0,29.08,27Z"/><path class="cls-1" d="M24.16,31a.43.43,0,0,0-.43.43V36a.43.43,0,0,0,.74.3.42.42,0,0,0,.12-.3V31.43A.43.43,0,0,0,24.16,31Z"/><path class="cls-1" d="M21.89,31a.43.43,0,0,0-.43.43v7.33a.43.43,0,0,0,.86,0V31.43A.43.43,0,0,0,21.89,31Z"/><path class="cls-1" d="M19.64,31a.42.42,0,0,0-.42.43V36a.43.43,0,0,0,.42.43.44.44,0,0,0,.31-.13.42.42,0,0,0,.12-.3V31.43A.43.43,0,0,0,19.64,31Z"/><path class="cls-1" d="M21.9,4.38A95.62,95.62,0,0,0,2.19,6.57,117.77,117.77,0,0,1,4.38,30.65c0,10.18,17.52,19.88,17.52,19.88s17.53-9.7,17.53-19.88c0-17.44,2.19-24.08,2.19-24.08A95.66,95.66,0,0,0,21.9,4.38ZM37.65,30.26c0,9.18-15.75,17.93-15.75,17.93S6.16,39.44,6.16,30.26a106.45,106.45,0,0,0-2-21.71,85.46,85.46,0,0,1,17.71-2,85.49,85.49,0,0,1,17.72,2S37.65,14.54,37.65,30.26Z"/></g></g></svg>