<svg xmlns="http://www.w3.org/2000/svg" viewBox="0 0 288.33 103.7"><defs><style>.cls-1{fill:#08172d;}.cls-2{fill:#ec1c24;}</style></defs><g id="Layer_2" data-name="Layer 2"><g id="Layer_1-2" data-name="Layer 1"><path class="cls-1" d="M43.21,0C17.28,0,0,8.84,0,8.84V60.72c0,25.7,43.21,43,43.21,43s43.21-17.28,43.21-43V8.84S69.14,0,43.21,0ZM82.1,60c0,23.57-38.89,39.42-38.89,39.42S4.32,83.57,4.32,60V13S19.88,4.32,43.21,4.32,82.1,13,82.1,13Z"/><path class="cls-2" d="M43.21,8.64A188.68,188.68,0,0,0,4.32,13s4.32,18.7,4.32,47.51c0,20.07,34.57,39.22,34.57,39.22S77.78,80.54,77.78,60.47C77.78,26.06,82.1,13,82.1,13A188.68,188.68,0,0,0,43.21,8.64ZM74.27,59.7c0,18.1-31.06,35.37-31.06,35.37S12.15,77.8,12.15,59.7c0-26-3.88-42.84-3.88-42.84A168.66,168.66,0,0,1,43.21,13a168.66,168.66,0,0,1,34.94,3.9S74.27,28.67,74.27,59.7Z"/><g id="g7258"><g id="path7260"><path class="cls-1" d="M33.54,39a.63.63,0,1,1-.62.62.63.63,0,0,1,.62-.62"/></g></g><g id="g7266"><g id="path7268"><path class="cls-1" d="M39.87,39a.63.63,0,1,1-.63.62.62.62,0,0,1,.63-.62"/></g></g><g id="g7274"><g id="path7276"><path class="cls-1" d="M53.25,39a.63.63,0,1,0,.63.62.62.62,0,0,0-.63-.62"/></g></g><g id="g7282"><g id="path7284"><path class="cls-1" d="M46.93,39a.63.63,0,1,0,.62.62.63.63,0,0,0-.62-.62"/></g></g><path class="cls-1" d="M54.88,40.22c-.13.51-.42.87-.76.87s-.6-.3-.75-.75h-.12a.72.72,0,0,1-.55-.26,1.22,1.22,0,0,1-1.07,1,1.15,1.15,0,0,1-1-.8h-.06a1.17,1.17,0,0,1-.66-.2,1.4,1.4,0,0,1-2.62.16.68.68,0,0,1-.77,0,1.5,1.5,0,0,1-2.74,0,1.23,1.23,0,0,1-.39.06,1.15,1.15,0,0,1-.37-.06,1.5,1.5,0,0,1-2.73,0,.74.74,0,0,1-.41.13.76.76,0,0,1-.37-.1,1.4,1.4,0,0,1-1.27.84,1.43,1.43,0,0,1-1.35-1,1.21,1.21,0,0,1-.65.19h0a1.17,1.17,0,0,1-1,.83,1.21,1.21,0,0,1-1.08-1,.71.71,0,0,1-.54.25h-.13c-.15.45-.43.75-.74.75s-.64-.36-.77-.88L31.41,40v1.7H55.35V40C55.19,40.06,55,40.14,54.88,40.22Z"/><polygon class="cls-1" points="56.23 44.08 55.49 42.78 53.86 44.08 55.49 45.38 56.23 44.08"/><path class="cls-1" d="M37.79,43.24h-2c-.24,0-.44.39-.44.86s.2.9.44.9h2c.24,0,.45-.42.45-.9S38,43.24,37.79,43.24Zm-.21,1.55H35.94c-.25,0-.44-.3-.44-.69s.19-.66.44-.66h1.64c.25,0,.45.29.45.66S37.83,44.79,37.58,44.79Z"/><polygon class="cls-1" points="45.55 44.08 43.38 42.76 41.22 44.08 43.38 45.4 45.55 44.08"/><path class="cls-1" d="M37.58,43.54H35.94c-.19,0-.34.25-.34.56s.15.59.34.59h1.64c.19,0,.35-.27.35-.59S37.77,43.54,37.58,43.54Z"/><path class="cls-1" d="M51,43.24H49c-.25,0-.46.39-.46.86s.22.9.46.9h2c.23,0,.44-.41.44-.9S51.25,43.24,51,43.24Zm-.2,1.55H49.17c-.25,0-.46-.31-.46-.69s.2-.66.46-.66h1.64c.24,0,.44.29.44.66S51.05,44.79,50.81,44.79Z"/><polygon class="cls-1" points="32.9 44.08 31.27 42.78 30.54 44.08 31.27 45.38 32.9 44.08"/><path class="cls-1" d="M50.81,43.54H49.17c-.2,0-.36.25-.36.56s.17.59.36.59h1.64c.19,0,.34-.26.34-.59S51,43.54,50.81,43.54Z"/><path class="cls-1" d="M31.43,42.64H55.34a.44.44,0,0,0,.43-.45.42.42,0,0,0-.43-.44H31.43a.42.42,0,0,0-.43.44A.44.44,0,0,0,31.43,42.64Z"/><path class="cls-1" d="M55.34,45.54H31.43A.42.42,0,0,0,31,46a.44.44,0,0,0,.43.45H55.34a.44.44,0,0,0,.43-.45A.42.42,0,0,0,55.34,45.54Z"/><path class="cls-1" d="M55,45.44h.44L53.7,44.08l1.69-1.35H55l-1.68,1.34L55,45.42Z"/><path class="cls-1" d="M31.8,42.74h-.42l1.68,1.35-1.71,1.36h.44s0,0,0,0l1.67-1.34L31.8,42.74Z"/><path class="cls-1" d="M40.24,44.08l2.2-1.34H32l1.67,1.34-1.7,1.36H42.47Zm-5.83.39a.39.39,0,0,1-.39-.38.39.39,0,1,1,.78,0A.39.39,0,0,1,34.41,44.47Zm3.38.63h-2c-.3,0-.54-.44-.54-1s.23-1,.54-1h2c.31,0,.55.42.55,1S38.09,45.1,37.79,45.1Zm1.57-.64a.39.39,0,0,1-.39-.38.4.4,0,0,1,.39-.39.38.38,0,0,1,.37.39A.37.37,0,0,1,39.36,44.46Z"/><path class="cls-1" d="M42.64,45.44h.62L41,44.08l2.2-1.34h-.61l-2.19,1.33,2.19,1.33Z"/><path class="cls-1" d="M44.15,45.41l2.19-1.33-2.19-1.33h-.61l2.2,1.34-2.23,1.36h.62Z"/><path class="cls-1" d="M53.12,44.08l1.68-1.34H44.33l2.2,1.34L44.3,45.44H54.83Zm-5.73.38a.38.38,0,0,1-.38-.38.39.39,0,0,1,.38-.39.4.4,0,0,1,.39.39A.39.39,0,0,1,47.39,44.46ZM51,45.1H49c-.31,0-.56-.45-.56-1s.25-1,.56-1h2c.3,0,.54.41.54,1S51.31,45.1,51,45.1Zm1.33-.63a.38.38,0,0,1-.39-.38.39.39,0,0,1,.39-.4.4.4,0,0,1,.39.4A.39.39,0,0,1,52.34,44.47Z"/><path class="cls-1" d="M50.6,37a3.81,3.81,0,0,0-.35-.9,1,1,0,0,0-.16.25,4.34,4.34,0,0,1,.36.86l.19-.18S50.61,37.06,50.6,37Z"/><path class="cls-1" d="M51.27,35.69a.59.59,0,0,1-.37-.13,2.48,2.48,0,0,0-.58.49,4.08,4.08,0,0,1,.38,1h0c.32-.29.67-.58,1-.84a1.23,1.23,0,0,0-.29-.51Z"/><path class="cls-1" d="M36.23,38.06a1,1,0,1,0,1,1A1,1,0,0,0,36.23,38.06Zm.59,1.18a.58.58,0,0,1-.57.45.62.62,0,0,1-.49-.26.57.57,0,0,1-.09-.32.59.59,0,0,1,1.17,0A.51.51,0,0,1,36.82,39.24Z"/><path class="cls-1" d="M36.23,37.91a1.19,1.19,0,0,1,.6.16,3.51,3.51,0,0,0,.27-1.66.28.28,0,0,0-.3.1,2.35,2.35,0,0,0-1.13-1.08A1.32,1.32,0,0,0,35,36.51a.38.38,0,0,0-.34-.1,5.45,5.45,0,0,0,1,1.66A1.21,1.21,0,0,1,36.23,37.91Z"/><path class="cls-1" d="M35.05,39.09a1.18,1.18,0,0,1,.52-1,2.07,2.07,0,0,0-1-.4,1.63,1.63,0,0,0,.21.53c-.29.13-.31.45-.42.88.32.4.5.68.87.83a1.14,1.14,0,0,0,.06.54,3,3,0,0,0,.54-.3A1.18,1.18,0,0,1,35.05,39.09Z"/><path class="cls-1" d="M38.58,39.12c-.3-.43-.46-.75-.8-.88a1.37,1.37,0,0,0,0-.53,1.39,1.39,0,0,0-.85.41,1.2,1.2,0,0,1,.5,1,1.18,1.18,0,0,1-.31.79,4.08,4.08,0,0,0,1.16.61,1.33,1.33,0,0,0-.18-.54C38.39,39.8,38.44,39.52,38.58,39.12Z"/><path class="cls-1" d="M31.49,39.09a1.25,1.25,0,0,1-.2.66,6.55,6.55,0,0,0,1.57.74,3.83,3.83,0,0,0-.46-.55c.19-.15.09-.44,0-.84-.5-.44-.46-.76-.84-.9a2.7,2.7,0,0,0-.32-.54,1.72,1.72,0,0,0-.68.25A1.21,1.21,0,0,1,31.49,39.09Z"/><path class="cls-1" d="M30.19,37.89c-.16-.51-.44-.76-.78-1.55-.13,0-.52.11-.54.21a3.22,3.22,0,0,0-2.59-.6,10.09,10.09,0,0,0,2.91,2.63A1.19,1.19,0,0,1,30.19,37.89Z"/><path class="cls-1" d="M30.29,38a1.07,1.07,0,1,0,1.07,1.07A1.07,1.07,0,0,0,30.29,38Zm0,1.65a.58.58,0,1,1,.58-.58A.58.58,0,0,1,30.29,39.67Z"/><path class="cls-1" d="M43.38,38a1.07,1.07,0,1,0,1.07,1.07A1.07,1.07,0,0,0,43.38,38Zm0,1.67a.6.6,0,1,1,.6-.6A.6.6,0,0,1,43.39,39.69Z"/><path class="cls-1" d="M50.56,38a1.08,1.08,0,1,0,1.07,1.08A1.07,1.07,0,0,0,50.56,38Zm0,1.64a.58.58,0,1,1,.58-.58A.58.58,0,0,1,50.57,39.65Z"/><path class="cls-1" d="M56.51,38a1.09,1.09,0,1,0,1.09,1.09A1.09,1.09,0,0,0,56.51,38Zm0,1.66a.6.6,0,0,1-.59-.59.59.59,0,0,1,.59-.59.58.58,0,0,1,.59.59A.59.59,0,0,1,56.54,39.66Z"/><path class="cls-1" d="M43.38,37.88a1.23,1.23,0,0,1,.71.23,3.73,3.73,0,0,0,.8-1.7.46.46,0,0,0-.39.1c-.1-.51-.69-.9-1.09-1.08-.4.18-1,.57-1.11,1.08a.46.46,0,0,0-.39-.1,3.73,3.73,0,0,0,.79,1.69A1.15,1.15,0,0,1,43.38,37.88Z"/><path class="cls-1" d="M46,39.12c-.24-.43-.36-.75-.74-.88a1.17,1.17,0,0,0,.11-.53,2.29,2.29,0,0,0-1.19.45,1.19,1.19,0,0,1,0,1.85,3.93,3.93,0,0,0,1.06.48,1.09,1.09,0,0,0-.07-.54C45.55,39.8,45.7,39.52,46,39.12Z"/><path class="cls-1" d="M42.18,39.09a1.22,1.22,0,0,1,.45-.94,2.3,2.3,0,0,0-1.17-.44,1.17,1.17,0,0,0,.11.53c-.38.13-.49.45-.74.88.28.4.42.68.83.83a1.09,1.09,0,0,0-.07.54,4.42,4.42,0,0,0,1-.46A1.23,1.23,0,0,1,42.18,39.09Z"/><path class="cls-1" d="M50.56,37.88a1.16,1.16,0,0,1,.59.16,5.57,5.57,0,0,0,1-1.7.43.43,0,0,0-.35.09,1.32,1.32,0,0,0-.69-1.09A2.41,2.41,0,0,0,50,36.43a.31.31,0,0,0-.31-.09A3.68,3.68,0,0,0,50,38,1.22,1.22,0,0,1,50.56,37.88Z"/><path class="cls-1" d="M52.47,39.1c-.11-.44-.13-.76-.42-.9a1.6,1.6,0,0,0,.21-.54,2.19,2.19,0,0,0-1,.42,1.19,1.19,0,0,1,.55,1A1.21,1.21,0,0,1,51,40.21a2.74,2.74,0,0,0,.53.28,1.31,1.31,0,0,0,.06-.55C52,39.79,52.15,39.5,52.47,39.1Z"/><path class="cls-1" d="M49.66,39.88a1.17,1.17,0,0,1-.3-.79,1.2,1.2,0,0,1,.53-1,1.38,1.38,0,0,0-.87-.43,1.27,1.27,0,0,0,0,.54c-.35.14-.51.46-.82.9.15.4.2.69.51.84a1.62,1.62,0,0,0-.18.55A3.84,3.84,0,0,0,49.66,39.88Z"/><path class="cls-1" d="M57.92,36.55c0-.1-.41-.23-.54-.21-.34.79-.62,1-.78,1.55a1.18,1.18,0,0,1,1,.69A10.09,10.09,0,0,0,60.51,36,3.23,3.23,0,0,0,57.92,36.55Z"/><path class="cls-1" d="M55.51,39.75a1.17,1.17,0,0,1-.2-.66,1.2,1.2,0,0,1,.94-1.18,1.76,1.76,0,0,0-.69-.25,2.21,2.21,0,0,0-.31.54c-.38.14-.35.46-.85.9-.09.4-.2.69,0,.84a3.74,3.74,0,0,0-.45.55A6.73,6.73,0,0,0,55.51,39.75Z"/><path class="cls-1" d="M37.57,28.42a13.23,13.23,0,0,1-2.79-.34l-.09.25a13.86,13.86,0,0,0,2.88.34,13.14,13.14,0,0,0,4-.65,1.51,1.51,0,0,0-.11-.22A13,13,0,0,1,37.57,28.42Z"/><path class="cls-1" d="M37.57,28.32a12.76,12.76,0,0,0,3.84-.61,2.92,2.92,0,0,0-.21-.32h0l-.14-.16H41a.5.5,0,0,1-.49-.5v-.06a3.19,3.19,0,0,0-.63-.35h-.07a.69.69,0,0,0-.66.49.68.68,0,0,0-.56-.29.7.7,0,0,0-.61.35.68.68,0,0,0-1.15-.12.72.72,0,0,0-.44-.38l-.31.19.12,0a.5.5,0,0,1,.49.5.08.08,0,0,0,0,.06.21.21,0,0,0,0,.06.48.48,0,0,1-.47.37.49.49,0,0,1-.5-.49.48.48,0,0,1,.06-.24,3.42,3.42,0,0,0-.57.63h0l0,0a.86.86,0,0,1-.07.1h0a3.14,3.14,0,0,0-.25.44A13.43,13.43,0,0,0,37.57,28.32Zm2.21-1.8a.5.5,0,1,1-.5.49A.49.49,0,0,1,39.78,26.52Zm-1.22.2a.5.5,0,1,1-.5.49A.49.49,0,0,1,38.56,26.72Zm-1.7.35a.49.49,0,0,1,.48-.38.5.5,0,0,1,.49.5.5.5,0,0,1-1,0,.14.14,0,0,0,0-.07A.1.1,0,0,0,36.86,27.07Z"/><path class="cls-1" d="M49.22,28.32A13.62,13.62,0,0,0,52,28a3.14,3.14,0,0,0-.25-.44h0l-.06-.1,0,0h0a3.47,3.47,0,0,0-.58-.63.48.48,0,0,1,.06.24.49.49,0,0,1-1,.12s0,0,0-.06,0,0,0-.06a.51.51,0,0,1,.5-.5l.12,0a3.37,3.37,0,0,0-.32-.19.7.7,0,0,0-.43.38.7.7,0,0,0-.54-.26.71.71,0,0,0-.62.38.69.69,0,0,0-.6-.35.67.67,0,0,0-.56.29.69.69,0,0,0-.66-.49h-.09a2.78,2.78,0,0,0-.42.22h0l-.18.11s0,0,0,.07a.51.51,0,0,1-.5.5l-.11,0-.07.09h0l-.06.08h0a2.2,2.2,0,0,0-.21.32A12.83,12.83,0,0,0,49.22,28.32Zm.24-1.63a.51.51,0,0,1,.48.38.07.07,0,0,0,0,.05.09.09,0,0,0,0,.07.49.49,0,0,1-.49.49.5.5,0,0,1-.5-.49A.51.51,0,0,1,49.46,26.69Zm-1.22,0a.5.5,0,0,1,0,1,.5.5,0,1,1,0-1ZM47,26.52a.5.5,0,1,1-.5.49A.49.49,0,0,1,47,26.52Z"/><path class="cls-1" d="M49.22,28.42a13.1,13.1,0,0,1-3.9-.62l-.11.21a12.88,12.88,0,0,0,4,.66,14,14,0,0,0,2.89-.34,1.86,1.86,0,0,0-.1-.25A13.23,13.23,0,0,1,49.22,28.42Z"/><path class="cls-1" d="M30.35,27.57a9.67,9.67,0,0,1,1.76.19l.14-.27a9.31,9.31,0,0,0-2.05-.27c-1.79,0-3.88.73-3.88,2.79A4.23,4.23,0,0,0,29.47,34s0,0,0,.06a8.26,8.26,0,0,0,0,2.28h0a6.19,6.19,0,0,0,.35.69,13.09,13.09,0,0,1,0-3.19,4,4,0,0,1-3.09-3.49C26.76,28.41,28.24,27.57,30.35,27.57Z"/><path class="cls-1" d="M56.45,27.57a9.87,9.87,0,0,0-1.77.19l-.13-.27a9.24,9.24,0,0,1,2.05-.27c1.79,0,3.88.73,3.88,2.79A4.23,4.23,0,0,1,57.33,34s0,0,0,.06a7.85,7.85,0,0,1,0,2.28h0A6.36,6.36,0,0,1,57,37a12.61,12.61,0,0,0,0-3.19A4,4,0,0,0,60,30.31C60,28.41,58.56,27.57,56.45,27.57Z"/><path class="cls-1" d="M30.2,27.12a10.42,10.42,0,0,1,2.1.27.76.76,0,0,1,.2-.32l.22-.32h-.09a.5.5,0,1,1,0-1A.52.52,0,0,1,33,26l.15-.12a.68.68,0,0,0-.54-.27.73.73,0,0,0-.51.22.69.69,0,0,0-1.21-.22.69.69,0,0,0-1.23-.13.69.69,0,0,0-1.26.08.71.71,0,0,0-.57-.3.69.69,0,0,0-.69.61.74.74,0,0,0-.41-.13.7.7,0,0,0-.7.69v0a.63.63,0,0,0-.27-.06.69.69,0,0,0-.7.69s0,.07,0,.09l-.09.09h0a.7.7,0,0,0-.7.7.85.85,0,0,0,0,.23c-.07.14-.14.29-.2.44a.71.71,0,0,0-.19.47s0,.08,0,.12a4.45,4.45,0,0,0-.1.91,7.33,7.33,0,0,0,3.09,5.63l.09,0a3.77,3.77,0,0,1,1.85.64h0a1.09,1.09,0,0,1,.52-.16,7.74,7.74,0,0,1,0-2.21,4.33,4.33,0,0,1-3.18-4C26.22,28.25,27.78,27.12,30.2,27.12Zm1.26-1.62A.5.5,0,1,1,31,26,.49.49,0,0,1,31.46,25.5Zm-1.2-.18a.51.51,0,0,1,.5.5.5.5,0,0,1-.5.49.49.49,0,0,1-.49-.49A.5.5,0,0,1,30.26,25.32Zm-1.19-.05a.5.5,0,0,1,.49.5.5.5,0,0,1-1,0A.5.5,0,0,1,29.07,25.27Zm-1.22.15a.5.5,0,0,1,.49.5.5.5,0,0,1-1,0A.5.5,0,0,1,27.85,25.42Zm-2.89,2a.5.5,0,1,1-.5.5A.49.49,0,0,1,25,27.44Zm-.35,1.15a.5.5,0,1,1-.5.49A.49.49,0,0,1,24.61,28.59Zm-.42,1.69a.49.49,0,0,1,.49-.5.49.49,0,0,1,.24.93.13.13,0,0,0-.05.07.08.08,0,0,0-.06,0h-.13A.49.49,0,0,1,24.19,30.28Zm.42,1.09a.49.49,0,0,1,.25-.42.1.1,0,0,0,.05-.08.09.09,0,0,0,.09,0h.1a.49.49,0,0,1,.5.49.51.51,0,0,1-.28.45l0,0h0a.45.45,0,0,1-.16,0A.49.49,0,0,1,24.61,31.37Zm.45,1.1a.49.49,0,0,1,.28-.44s0,0,0,0h0l.16,0a.5.5,0,1,1-.49.5Zm2.54,2.31a.51.51,0,0,1,.34-.14.5.5,0,1,1-.49.5.48.48,0,0,1,.09-.29.08.08,0,0,0,0-.05Zm-.06-.42a.5.5,0,0,1-.09.29s0,0,0,.05l0,0a.48.48,0,0,1-.34.14.5.5,0,1,1,.49-.5ZM26.3,33a.5.5,0,0,1,.5.49.51.51,0,0,1-.5.5.5.5,0,0,1-.49-.5A.49.49,0,0,1,26.3,33Zm-.52-5.39a.5.5,0,1,1,0-1,.53.53,0,0,1,.38.18l0,0s0,0,0,0a.44.44,0,0,1,.07.24A.49.49,0,0,1,25.78,27.56Zm.59-.86,0,0,0,0a.55.55,0,0,1-.07-.25.5.5,0,0,1,.5-.49.49.49,0,0,1,.49.49.5.5,0,0,1-.49.5A.47.47,0,0,1,26.37,26.7Z"/><path class="cls-1" d="M62.87,29.2a.49.49,0,0,0,0-.12.67.67,0,0,0-.19-.47,4.28,4.28,0,0,0-.2-.43.67.67,0,0,0,0-.24.69.69,0,0,0-.69-.7h-.05a.38.38,0,0,0-.09-.09.22.22,0,0,0,0-.09.69.69,0,0,0-.69-.69.67.67,0,0,0-.28.06v0a.7.7,0,0,0-1.1-.56.71.71,0,0,0-.69-.61.68.68,0,0,0-.57.3.7.7,0,0,0-.65-.45.68.68,0,0,0-.61.37.71.71,0,0,0-.59-.32.69.69,0,0,0-.64.45.72.72,0,0,0-.55-.27.7.7,0,0,0-.67.49.68.68,0,0,0-1.05.06.91.91,0,0,1,.16.11.51.51,0,0,1,.39-.19.5.5,0,0,1,0,1h-.09l.22.32a.57.57,0,0,1,.2.32,10.42,10.42,0,0,1,2.09-.27c2.42,0,4,1.13,4,2.89a4.33,4.33,0,0,1-3.18,4,8.15,8.15,0,0,1,0,2.21,1.1,1.1,0,0,1,.53.16h0a3.8,3.8,0,0,1,1.86-.64l.08,0A7.3,7.3,0,0,0,63,30.11,4.45,4.45,0,0,0,62.87,29.2Zm-7.53-2.71a.5.5,0,1,1,.49-.5A.5.5,0,0,1,55.34,26.49Zm1.19-.18a.49.49,0,0,1-.49-.49.5.5,0,1,1,1,0A.49.49,0,0,1,56.53,26.31Zm1.2,0a.5.5,0,0,1-.5-.49.51.51,0,0,1,.5-.5.5.5,0,0,1,.49.5A.49.49,0,0,1,57.73,26.26Zm4.11,1.18a.5.5,0,0,1,0,1,.5.5,0,1,1,0-1Zm-2.89-1a.5.5,0,0,1-.5-.49.51.51,0,0,1,.5-.5.5.5,0,0,1,.49.5A.49.49,0,0,1,59,26.41Zm1.51.27,0,0a.49.49,0,0,1-.88-.31.5.5,0,0,1,1,0,.45.45,0,0,1-.07.25S60.46,26.66,60.46,26.68Zm.06.38a.44.44,0,0,1,.07-.24.06.06,0,0,0,0,0l0,0a.49.49,0,1,1-.12.31Zm-1.67,8.57a.5.5,0,1,1,0-1,.48.48,0,0,1,.34.14l.05,0a.07.07,0,0,0,0,.05.48.48,0,0,1,.09.29A.49.49,0,0,1,58.85,35.63Zm.9-.77a.52.52,0,0,1-.35-.14l0,0a.08.08,0,0,0,0-.05.5.5,0,0,1,.41-.78.5.5,0,0,1,0,1Zm.74-.92a.5.5,0,0,1-.49-.5.5.5,0,0,1,1,0A.5.5,0,0,1,60.49,33.94Zm.75-1a.5.5,0,0,1,0-1l.16,0h0l0,0a.49.49,0,0,1,.28.44A.51.51,0,0,1,61.24,33Zm.45-1.1-.16,0h0l0,0a.51.51,0,0,1-.28-.45.5.5,0,0,1,.5-.49h.11a.11.11,0,0,0,.08,0s0,.05,0,.06a.5.5,0,0,1-.24.93Zm.42-1.1H62a.08.08,0,0,0-.08,0,.08.08,0,0,0-.05-.07.52.52,0,0,1-.25-.43.5.5,0,1,1,.49.49Zm.08-1.19a.5.5,0,1,1,.49-.5A.5.5,0,0,1,62.19,29.58Z"/><path class="cls-1" d="M43.39,26.64a2.13,2.13,0,0,0,2-1.34h-4A2.13,2.13,0,0,0,43.39,26.64Z"/><path class="cls-1" d="M43,20.56a4.32,4.32,0,0,1-.53,1.85h.12a2.32,2.32,0,0,1,.83-.17,2.19,2.19,0,0,1,.85.17h.09a4.32,4.32,0,0,1-.51-1.85,4.32,4.32,0,0,1,1.85.52,3.25,3.25,0,0,1,0-1.88,4.37,4.37,0,0,1-1.84.51,4.57,4.57,0,0,1,.51-1.85,3,3,0,0,1-1.88,0A4.62,4.62,0,0,1,43,19.7a4.43,4.43,0,0,1-1.85-.52,3.47,3.47,0,0,1,0,1.89A4.67,4.67,0,0,1,43,20.56Z"/><path class="cls-1" d="M45.52,24.56H43.69V22.38l-.31,0-.31,0v2.18H41.25a2,2,0,0,0,.11.64h4A2,2,0,0,0,45.52,24.56Z"/><path class="cls-1" d="M43.79,22.39v2.07h1.73A2.15,2.15,0,0,0,43.79,22.39Z"/><path class="cls-1" d="M41.24,24.46H43V22.4A2.14,2.14,0,0,0,41.24,24.46Z"/><path class="cls-1" d="M40.11,34.16a.05.05,0,0,1,0,0l0,0a5.93,5.93,0,0,0,2.19-4.37,4,4,0,0,0-4.37-4.1,3.92,3.92,0,0,0-3.82,3.8c0,2.67,2.06,4.27,3.61,5.25,0,0,0,0,0,0a.05.05,0,0,1,0,0A4.72,4.72,0,0,0,36.61,36a1.88,1.88,0,0,1,.16.23,4.68,4.68,0,0,1,1.44-1.55c-1.67-1.05-3.81-2.65-3.81-5.29a3.6,3.6,0,0,1,3.54-3.54A3.69,3.69,0,0,1,42,29.71a6,6,0,0,1-2.28,4.41,22.26,22.26,0,0,1,2.51,2.18l0-.06A13,13,0,0,0,40.11,34.16Z"/><path class="cls-1" d="M49.07,34.74s0,0,0,0a.05.05,0,0,1,0,0c1.55-1,3.62-2.58,3.62-5.25a3.92,3.92,0,0,0-3.83-3.8,4,4,0,0,0-4.36,4.1,5.93,5.93,0,0,0,2.19,4.37.06.06,0,0,1,0,0s0,0,0,0a12.89,12.89,0,0,0-2.15,2.08.08.08,0,0,1,0,0,21.28,21.28,0,0,1,2.52-2.17,6.05,6.05,0,0,1-2.3-4.41c0-1.89,1.14-3.84,4.08-3.84a3.6,3.6,0,0,1,3.54,3.54c0,2.64-2.15,4.24-3.82,5.29A4.72,4.72,0,0,1,50,36.24a1,1,0,0,1,.17-.24A4.56,4.56,0,0,0,49.07,34.74Z"/><path class="cls-1" d="M54.43,27.47a.61.61,0,0,0-.21-.35l-.33-.46a.78.78,0,0,0,0-.16.69.69,0,0,0-.7-.69h-.14a.59.59,0,0,0,0-.23.68.68,0,0,0-.94-.65.41.41,0,0,0,0-.11.69.69,0,0,0-.69-.7.65.65,0,0,0-.37.11.7.7,0,0,0-1.26-.41.69.69,0,0,0-.64-.43.68.68,0,0,0-.61.39.71.71,0,0,0-.59-.32.69.69,0,0,0-.66.51.72.72,0,0,0-.52-.23.7.7,0,0,0-.69.58.68.68,0,0,0-.51-.23h0a1.23,1.23,0,0,1,0,.19h0a.5.5,0,0,1,0,1l-.16,0a1.47,1.47,0,0,1-.06.14h0a2.22,2.22,0,0,1-4,.08,1.3,1.3,0,0,1-.08-.17.4.4,0,0,1-.15,0,.5.5,0,1,1,0-1h0a1.36,1.36,0,0,1,0-.2h0a.7.7,0,0,0-.52.23.69.69,0,0,0-1.2-.36.7.7,0,0,0-.67-.51.71.71,0,0,0-.58.32.69.69,0,0,0-1.26.05.7.7,0,0,0-.56-.28.68.68,0,0,0-.69.68.76.76,0,0,0-.37-.1.69.69,0,0,0-.69.69.37.37,0,0,0,0,.11.69.69,0,0,0-1,.65.78.78,0,0,0,0,.21l0,0h-.11a.69.69,0,0,0-.69.7.41.41,0,0,0,0,.11q-.18.22-.33.45a.66.66,0,0,0-.2.34,5.18,5.18,0,0,0-.63,2.5c0,2,1,3.26,1.14,4.73.55.35,1.32.85,2.08,1.41a1.33,1.33,0,0,1,.27-.46l.07-.08a.49.49,0,0,1-.28-.45.51.51,0,0,1,1,0,.53.53,0,0,1-.12.32h0l.08,0h0l.06,0h0a3,3,0,0,1,.46.41,4.65,4.65,0,0,1,1.07-1.23c-1.56-1-3.6-2.62-3.6-5.3a4,4,0,0,1,3.92-3.9,4.11,4.11,0,0,1,4.47,4.2,6.07,6.07,0,0,1-2.18,4.41,13,13,0,0,1,2.09,2,2,2,0,0,1,.52-.55.59.59,0,0,1,.58-.48.58.58,0,0,1-.59-.59.59.59,0,0,1,.59-.6.58.58,0,0,1-.59-.59.59.59,0,0,1,.59-.6.58.58,0,0,1-.59-.59.59.59,0,0,1,.59-.6.6.6,0,0,1,0-1.19.6.6,0,0,1,0-1.19.59.59,0,0,1-.59-.6.58.58,0,0,1,.59-.59.59.59,0,0,1-.59-.6.58.58,0,0,1,.59-.59.59.59,0,0,1,.6.59.6.6,0,0,1-.6.6.59.59,0,0,1,.6.59.6.6,0,0,1-.6.6.6.6,0,1,1,0,1.19.6.6,0,1,1,0,1.19.6.6,0,0,1,.6.6.59.59,0,0,1-.6.59.6.6,0,0,1,.6.6.59.59,0,0,1-.6.59.6.6,0,0,1,.6.6.59.59,0,0,1-.6.59.62.62,0,0,1,.59.49,2.07,2.07,0,0,1,.49.54,12.49,12.49,0,0,1,2.08-2,6,6,0,0,1-2.17-4.41,4.1,4.1,0,0,1,4.46-4.2,4,4,0,0,1,3.93,3.9c0,2.68-2,4.3-3.61,5.3a4.69,4.69,0,0,1,1.06,1.21,2.39,2.39,0,0,1,.54-.46l.08-.05a.54.54,0,0,1-.1-.3.51.51,0,1,1,.79.43l0,.09a1.26,1.26,0,0,1,.26.45c.75-.56,1.5-1,2-1.39C54,33.22,55.05,32,55.05,30A5.13,5.13,0,0,0,54.43,27.47ZM33,27.07a.51.51,0,1,1-.51.51A.51.51,0,0,1,33,27.07Zm-.33,1.16a.51.51,0,1,1-.51.51A.51.51,0,0,1,32.64,28.23Zm-.4,1.71a.51.51,0,1,1,.51.51A.51.51,0,0,1,32.24,29.94Zm.27,1.15a.51.51,0,1,1,.51.51A.51.51,0,0,1,32.51,31.09ZM33,32.18a.51.51,0,0,1,.51-.51.51.51,0,0,1,0,1A.51.51,0,0,1,33,32.18Zm2.26,2.06a.51.51,0,1,1-.5-.51A.5.5,0,0,1,35.22,34.24Zm-1.17-1.51a.51.51,0,1,1-.51.51A.5.5,0,0,1,34.05,32.73Zm-.47-5.68a.5.5,0,1,1,.5-.49A.49.49,0,0,1,33.58,27.05Zm.8-.91a.5.5,0,1,1,.49-.5A.5.5,0,0,1,34.38,26.14Zm.93-.76a.5.5,0,0,1,0-1,.5.5,0,1,1,0,1Zm1.06-.58a.5.5,0,0,1-.49-.5.5.5,0,0,1,1,0A.5.5,0,0,1,36.37,24.8Zm1.2-.15a.5.5,0,1,1,.5-.49A.49.49,0,0,1,37.57,24.65Zm1.2.07a.5.5,0,1,1,.5-.5A.5.5,0,0,1,38.77,24.72ZM40,25a.5.5,0,1,1,.49-.49A.49.49,0,0,1,40,25Zm6.88,0a.51.51,0,0,1-.5-.5.5.5,0,0,1,.5-.49.49.49,0,0,1,.49.49A.5.5,0,0,1,46.84,24.94ZM48,24.66a.5.5,0,1,1,.5-.49A.49.49,0,0,1,48,24.66Zm1.2-.06a.5.5,0,0,1-.49-.5.5.5,0,0,1,1,0A.5.5,0,0,1,49.22,24.6Zm5.45,4.14a.51.51,0,1,1-.51-.51A.51.51,0,0,1,54.67,28.74Zm-.33-1.16a.51.51,0,1,1-.51-.51A.51.51,0,0,1,54.34,27.58Zm-3.92-2.84a.5.5,0,1,1,.5-.49A.49.49,0,0,1,50.42,24.74Zm1.07.58a.5.5,0,1,1,.49-.49A.49.49,0,0,1,51.49,25.32Zm.43.27a.5.5,0,0,1,.5-.5.5.5,0,0,1,0,1A.5.5,0,0,1,51.92,25.59Zm.8.91a.5.5,0,0,1,1,0,.5.5,0,1,1-1,0Zm-.64,8.25a.51.51,0,1,1,.51-.51A.51.51,0,0,1,52.08,34.75Zm.67-1a.51.51,0,1,1,.51-.5A.5.5,0,0,1,52.75,33.74Zm.58-1.05a.51.51,0,1,1,.51-.51A.51.51,0,0,1,53.33,32.69Zm.45-1.09a.51.51,0,1,1,.51-.51A.51.51,0,0,1,53.78,31.6Zm.27-1.15a.51.51,0,1,1,.51-.51A.51.51,0,0,1,54.05,30.45Z"/><path class="cls-1" d="M50.13,56.93H36.67a.84.84,0,0,0-.84.85.83.83,0,0,0,.84.84H50.13a.84.84,0,0,0,.84-.84A.85.85,0,0,0,50.13,56.93Z"/><path class="cls-1" d="M57.56,53.64H29.06v0a4.14,4.14,0,1,0,4.54,4.12.85.85,0,1,0-1.69,0,2.45,2.45,0,1,1-2.65-2.45H57.54a2.45,2.45,0,1,1-2.66,2.44.85.85,0,0,0-1.69,0,4.15,4.15,0,1,0,4.37-4.13Z"/><path class="cls-1" d="M47.85,61.53a.84.84,0,0,0-.84.84v9a.85.85,0,0,0,.84.84.86.86,0,0,0,.61-.25.82.82,0,0,0,.24-.59v-9A.84.84,0,0,0,47.85,61.53Z"/><path class="cls-1" d="M43.37,61.53a.84.84,0,0,0-.85.84V76.84a.85.85,0,0,0,1.69,0V62.37A.84.84,0,0,0,43.37,61.53Z"/><path class="cls-1" d="M38.94,61.53a.83.83,0,0,0-.84.84v9a.84.84,0,0,0,.84.84.86.86,0,0,0,.61-.25.82.82,0,0,0,.24-.59v-9A.84.84,0,0,0,38.94,61.53Z"/><path class="cls-1" d="M116.43,16.43a.87.87,0,0,0-.2-.67,1,1,0,0,0-.69-.19h-1.37c-.6,0-.9.29-.9.86a4.55,4.55,0,0,0,1.07,3,3.15,3.15,0,0,1,.92,1.88,2.65,2.65,0,0,1-1,2.16,4.26,4.26,0,0,1-2.72.77,3.57,3.57,0,0,1-2.72-1,3.85,3.85,0,0,1-1-2.79L108,9.5a.91.91,0,0,0-.2-.67,1,1,0,0,0-.69-.19h-1.4a1,1,0,0,0-.69.19.87.87,0,0,0-.2.67V20.43a6.6,6.6,0,0,0,1.77,4.93,6.86,6.86,0,0,0,5,1.75,7.44,7.44,0,0,0,5-1.56,5.11,5.11,0,0,0,.7-7.13A4.16,4.16,0,0,1,116.43,16.43Z"/><path class="cls-1" d="M122.09,26a7.93,7.93,0,0,0,4.51,1.12,6.89,6.89,0,0,0,4.81-1.51,5.08,5.08,0,0,0,1.66-4v-5a4.63,4.63,0,0,0-1.13-3.43A11.81,11.81,0,0,0,127.69,11a8.45,8.45,0,0,1-1.74-.74,1.09,1.09,0,0,1-.5-.79,1.07,1.07,0,0,0-.24-.69,1,1,0,0,0-.65-.17h-1.32a.92.92,0,0,0-.69.2,1,1,0,0,0-.21.74,3.67,3.67,0,0,0,.79,2.51A7.31,7.31,0,0,0,126,13.71a9.59,9.59,0,0,1,3.47,1.7,3.31,3.31,0,0,1,.35,1.86v4.21c-.08,1.76-1.17,2.67-3.26,2.72a4.28,4.28,0,0,1-2.48-.65,3.69,3.69,0,0,1-1.31-2,1.27,1.27,0,0,0-.42-.6,1,1,0,0,0-.7,0l-1.33.43a.79.79,0,0,0-.58,1.12A6.2,6.2,0,0,0,122.09,26Z"/><path class="cls-1" d="M142.57,27.11a7.53,7.53,0,0,0,5-1.53,5.27,5.27,0,0,0,1.81-4.26A5.51,5.51,0,0,0,147.78,17a7.33,7.33,0,0,0-5-1.44,16.76,16.76,0,0,0-3.87.46V9.55a.92.92,0,0,0-.2-.67,1,1,0,0,0-.69-.19h-1.4a1,1,0,0,0-.69.19.88.88,0,0,0-.2.67V20.48a6.48,6.48,0,0,0,1.77,4.89A6.9,6.9,0,0,0,142.57,27.11ZM138.93,19a10.33,10.33,0,0,1,3.77-.56,4.2,4.2,0,0,1,2.69.7,2.63,2.63,0,0,1,.85,2.15,2.57,2.57,0,0,1-1,2.13,4.34,4.34,0,0,1-2.72.75,3.63,3.63,0,0,1-2.71-.95,3.82,3.82,0,0,1-.93-2.77Z"/><path class="cls-1" d="M153.22,26a7.69,7.69,0,0,0,4.46,1.15,6.91,6.91,0,0,0,4.82-1.51,5.1,5.1,0,0,0,1.65-4V13.71a5,5,0,0,0-1.65-3.77,6.33,6.33,0,0,0-4.57-1.58,8.31,8.31,0,0,0-4.62,1.08,6,6,0,0,0-2.33,3.4.77.77,0,0,0,.56,1.1l1.35.43a1,1,0,0,0,.71,0,.9.9,0,0,0,.41-.58,3.71,3.71,0,0,1,1.25-2,4.31,4.31,0,0,1,2.5-.59,3.24,3.24,0,0,1,2.35.78,2.56,2.56,0,0,1,.81,1.92v7.31c0,2-1.08,2.93-3.24,2.93a4.22,4.22,0,0,1-2.53-.62,3.81,3.81,0,0,1-1.29-2,.77.77,0,0,0-1.1-.56l-1.32.44a.77.77,0,0,0-.59,1.09A6.46,6.46,0,0,0,153.22,26Z"/><path class="cls-1" d="M204,20.48V15a6.52,6.52,0,0,0-1.76-4.92,7,7,0,0,0-5.07-1.7q-5,0-6.54,4.05a.79.79,0,0,0,.56,1.12l1.27.43a.75.75,0,0,0,1.12-.51,3.5,3.5,0,0,1,3.59-2.19,3.65,3.65,0,0,1,2.72.94,3.81,3.81,0,0,1,.93,2.78v1a15.8,15.8,0,0,0-3.88-.46,7.33,7.33,0,0,0-5,1.44,5.51,5.51,0,0,0-1.61,4.34,5.29,5.29,0,0,0,1.8,4.26,7.55,7.55,0,0,0,5,1.53,6.92,6.92,0,0,0,5.06-1.74A6.52,6.52,0,0,0,204,20.48Zm-3.18,0a3.82,3.82,0,0,1-.93,2.77,3.66,3.66,0,0,1-2.72.95,4.31,4.31,0,0,1-2.71-.75,2.55,2.55,0,0,1-1-2.13,2.63,2.63,0,0,1,.86-2.15,4.19,4.19,0,0,1,2.69-.7,10.37,10.37,0,0,1,3.77.56Z"/><path class="cls-1" d="M213.42,27.11a7.51,7.51,0,0,0,5-1.53,5.3,5.3,0,0,0,1.81-4.26q0-5.78-6.58-5.78a16.76,16.76,0,0,0-3.87.46h0l0-2.65h0c0-1.38.42-2.08,1.25-2.08a1.53,1.53,0,0,1,1.17.59,2.68,2.68,0,0,1,.61,1.5A1,1,0,0,0,213,14a1,1,0,0,0,.69.2h1.4a1,1,0,0,0,.69-.2.91.91,0,0,0,.2-.67,8,8,0,0,0-.28-1.53,3.09,3.09,0,0,1,1.76-.56,6.66,6.66,0,0,1,1.53.18.78.78,0,0,0,1.09-.61l.33-1.05a.75.75,0,0,0-.56-1.09,8,8,0,0,0-2.21-.33,6.05,6.05,0,0,0-3.37,1.14l-.43-.28a4.44,4.44,0,0,0-1.28-.58,5.83,5.83,0,0,0-1.8-.28,4.59,4.59,0,0,0-1.8.33,3.38,3.38,0,0,0-1.33,1,5.83,5.83,0,0,0-1.07,3.7v7.05a6.52,6.52,0,0,0,1.77,4.89A6.9,6.9,0,0,0,213.42,27.11Zm.13-8.64a4.2,4.2,0,0,1,2.69.7,2.63,2.63,0,0,1,.85,2.15,2.57,2.57,0,0,1-1,2.13,4.32,4.32,0,0,1-2.72.75h0a3.63,3.63,0,0,1-2.71-.95,3.82,3.82,0,0,1-.93-2.77V19a7.12,7.12,0,0,1,1.58-.41h0a14.91,14.91,0,0,1,2.13-.14Z"/><path class="cls-1" d="M223.46,26.72h1.43a1,1,0,0,0,.69-.19.91.91,0,0,0,.2-.67l0-11.42a3.06,3.06,0,0,1,.95-2.38,4.52,4.52,0,0,1,5.28,0,3.08,3.08,0,0,1,.93,2.38V25.86a.72.72,0,0,0,.87.86h1.43a1,1,0,0,0,.68-.19.87.87,0,0,0,.21-.67V14.44A5.79,5.79,0,0,0,234.31,10a8.3,8.3,0,0,0-9.93,0,5.79,5.79,0,0,0-1.79,4.49V25.86a.72.72,0,0,0,.87.86Z"/><path class="cls-1" d="M256.7,18.18a3.56,3.56,0,0,0-.67-.8,2.07,2.07,0,0,0-.52-.4l-.23-.09.15-.08a1.83,1.83,0,0,0,.42-.34,3.74,3.74,0,0,0,.49-.59,3,3,0,0,0,.41-.94,5,5,0,0,0,.16-1.34,6.64,6.64,0,0,0-.24-1.78,5.75,5.75,0,0,0-.78-1.67,3.8,3.8,0,0,0-1.55-1.3,5.5,5.5,0,0,0-2.42-.49,9.51,9.51,0,0,0-4.43,1.19,5.14,5.14,0,0,0-3.42-1.19,11,11,0,0,0-4.43,1,2.8,2.8,0,0,0-1.11.82,2.23,2.23,0,0,0-.29,1.24v3.7A5.39,5.39,0,0,0,239.56,19a5.55,5.55,0,0,0,4.23,1.42,5.17,5.17,0,0,0,4.12-1.47,5.59,5.59,0,0,0,1.26-3.78V13.91a8.43,8.43,0,0,0-.23-1.86,5.73,5.73,0,0,1,2.75-.79,1.8,1.8,0,0,1,1.49.73,2.68,2.68,0,0,1,.57,1.72,1.8,1.8,0,0,1-.6,1.4,2.23,2.23,0,0,1-1.54.53.88.88,0,0,0-.67.21,1,1,0,0,0-.19.68v1.1a.84.84,0,0,0,.23.71,1.18,1.18,0,0,0,.74.18c1.66,0,2.49.92,2.49,2.75S253.13,24.2,251,24.2h-2.55a4.72,4.72,0,0,1-2.23-.43,3.34,3.34,0,0,1-1.34-1.43.77.77,0,0,0-1.2-.33l-1.19.69a.75.75,0,0,0-.36,1.17,5.65,5.65,0,0,0,2.41,2.47,8.55,8.55,0,0,0,3.91.77H251a6.89,6.89,0,0,0,4.81-1.51,5.08,5.08,0,0,0,1.66-4,8.65,8.65,0,0,0-.23-2.06A5,5,0,0,0,256.7,18.18Zm-10.72-3a2.59,2.59,0,0,1-.53,1.71,2.07,2.07,0,0,1-1.66.64,2.44,2.44,0,0,1-1.78-.61,2.35,2.35,0,0,1-.61-1.74v-3a.29.29,0,0,1,.15-.28,5.18,5.18,0,0,1,2.32-.56,1.83,1.83,0,0,1,1.55.73,3.15,3.15,0,0,1,.56,2Z"/><path class="cls-1" d="M275,12a3.23,3.23,0,0,1,.55,2V25.88a.89.89,0,0,0,.21.68,1,1,0,0,0,.68.19h1.4a1,1,0,0,0,.69-.19.89.89,0,0,0,.21-.68v-12a6,6,0,0,0-1.27-4.07,4.64,4.64,0,0,0-3.75-1.48,9.28,9.28,0,0,0-4.46,1.2,5.09,5.09,0,0,0-3.39-1.2,10.71,10.71,0,0,0-4.43,1.05h0a2.55,2.55,0,0,0-1.12.8,2.26,2.26,0,0,0-.3,1.26V25.88a.89.89,0,0,0,.2.68,1,1,0,0,0,.69.19h1.4a1,1,0,0,0,.69-.19.94.94,0,0,0,.2-.68V12c0-.1.12-.2.36-.28l.3-.13a7.53,7.53,0,0,1,.86-.24,4.09,4.09,0,0,1,.93-.12,1.9,1.9,0,0,1,1.58.73,3.23,3.23,0,0,1,.56,2v7.11a.87.87,0,0,0,.2.67,1,1,0,0,0,.69.2h1.4a1,1,0,0,0,.69-.2.91.91,0,0,0,.2-.67V13.88a7,7,0,0,0-.25-1.88,5.75,5.75,0,0,1,2.77-.77A1.77,1.77,0,0,1,275,12Z"/><path class="cls-1" d="M105.45,52.16h1.43a1.05,1.05,0,0,0,.69-.19,1,1,0,0,0,.2-.68l0-11.41a3.06,3.06,0,0,1,.94-2.39,3.85,3.85,0,0,1,2.65-.85,3.81,3.81,0,0,1,2.64.85,3.09,3.09,0,0,1,.93,2.39V51.29a.72.72,0,0,0,.86.87h1.43a1.05,1.05,0,0,0,.69-.19,1,1,0,0,0,.2-.68V39.88a5.81,5.81,0,0,0-1.78-4.5,8.35,8.35,0,0,0-9.94,0,5.81,5.81,0,0,0-1.78,4.5V51.29a1,1,0,0,0,.19.68A1,1,0,0,0,105.45,52.16Z"/><path class="cls-1" d="M148.56,41.86a.92.92,0,0,0-.2-.67,1,1,0,0,0-.69-.19h-1.38a.78.78,0,0,0-.89.86,4.55,4.55,0,0,0,1.07,3,3.21,3.21,0,0,1,.92,1.88,2.63,2.63,0,0,1-1,2.16,4.17,4.17,0,0,1-2.71.77,3.59,3.59,0,0,1-2.73-1,3.89,3.89,0,0,1-.94-2.79l0-10.93a.88.88,0,0,0-.21-.67,1,1,0,0,0-.69-.19h-1.4a1,1,0,0,0-.68.19.88.88,0,0,0-.21.67V45.86a6.6,6.6,0,0,0,1.77,4.93,6.88,6.88,0,0,0,5.06,1.75,7.48,7.48,0,0,0,5-1.56,5.33,5.33,0,0,0,1.82-4.28,5.47,5.47,0,0,0-1.12-2.85A4,4,0,0,1,148.56,41.86Z"/><path class="cls-1" d="M164.34,42a2.67,2.67,0,0,0,.32-1.28,3.59,3.59,0,0,0-1-2.72,10.18,10.18,0,0,0-3.33-1.82l-1.48-.47a11,11,0,0,1-1.22-.42.61.61,0,0,1-.39-.38,1,1,0,0,0-.28-.64,1.17,1.17,0,0,0-.69-.15H155a1,1,0,0,0-.69.19.92.92,0,0,0-.2.67,2.67,2.67,0,0,0,.74,2,7.16,7.16,0,0,0,2.88,1.41,15.83,15.83,0,0,1,3,1.16,1.38,1.38,0,0,1,.73,1.21,1,1,0,0,1-.62.83,3.16,3.16,0,0,1-1.47.32h-1.53a1,1,0,0,0-.68.19,1,1,0,0,0-.19.67v1.13a1,1,0,0,0,.19.68.91.91,0,0,0,.68.21h1.73A2.12,2.12,0,0,1,162,47.09a2.26,2.26,0,0,1-.84,1.88,3.75,3.75,0,0,1-2.37.66,4.21,4.21,0,0,1-2.51-.62,3.89,3.89,0,0,1-1.31-2,.77.77,0,0,0-1.1-.56l-1.32.44a.77.77,0,0,0-.59,1.09,6.41,6.41,0,0,0,2.37,3.44,7.61,7.61,0,0,0,4.46,1.15,7,7,0,0,0,4.78-1.48,4.86,4.86,0,0,0,1.69-3.85,6.26,6.26,0,0,0-.2-1.6,5.4,5.4,0,0,0-.45-1.16,3.86,3.86,0,0,0-.56-.75,3.15,3.15,0,0,0-.44-.41l-.21-.13.33-.3A2.92,2.92,0,0,0,164.34,42Z"/><path class="cls-1" d="M174.37,33.79a8.32,8.32,0,0,0-4.63,1.08,6.07,6.07,0,0,0-2.33,3.4.77.77,0,0,0,.56,1.1l1.35.43a1,1,0,0,0,.72,0,.9.9,0,0,0,.4-.57,3.71,3.71,0,0,1,1.25-2,4.33,4.33,0,0,1,2.5-.59,3.26,3.26,0,0,1,2.36.78,2.59,2.59,0,0,1,.8,1.92V46.7c0,2-1.08,2.93-3.24,2.93a4.24,4.24,0,0,1-2.53-.62,3.81,3.81,0,0,1-1.29-2,.77.77,0,0,0-1.09-.56l-1.33.44a.76.76,0,0,0-.58,1.09,6.45,6.45,0,0,0,2.36,3.44,7.61,7.61,0,0,0,4.46,1.15,7,7,0,0,0,4.82-1.5,5.14,5.14,0,0,0,1.65-4V39.14a5,5,0,0,0-1.65-3.77A6.33,6.33,0,0,0,174.37,33.79Z"/><path class="cls-1" d="M184.84,51.42a7.86,7.86,0,0,0,4.51,1.12,6.93,6.93,0,0,0,4.81-1.5,5.11,5.11,0,0,0,1.66-4V35a.92.92,0,0,0-.2-.67,1,1,0,0,0-.69-.19h-1.45a1,1,0,0,0-.69.19.88.88,0,0,0-.21.67v1.79l-.33-.13a6.45,6.45,0,0,0-1.05-.3,6.18,6.18,0,0,0-1.42-.16,6.79,6.79,0,0,0-1.65.21,7.73,7.73,0,0,0-1.8.7,4.91,4.91,0,0,0-1.71,1.53,6.6,6.6,0,0,0-1.08,2.45.93.93,0,0,0,0,.7.88.88,0,0,0,.6.37l1.37.36a1,1,0,0,0,.74,0,.84.84,0,0,0,.36-.6c.42-1.85,1.48-2.78,3.16-2.78a7.38,7.38,0,0,1,2.77.51V46.7c0,2-1.08,2.93-3.23,2.93a4.37,4.37,0,0,1-2.5-.65,3.7,3.7,0,0,1-1.32-2,1.27,1.27,0,0,0-.42-.6,1,1,0,0,0-.7,0l-1.33.43A.79.79,0,0,0,182.5,48,6.17,6.17,0,0,0,184.84,51.42Z"/><path class="cls-1" d="M207.18,35.49V35a.92.92,0,0,0-.2-.67,1,1,0,0,0-.69-.19h-1.4a1,1,0,0,0-.69.19.92.92,0,0,0-.2.67v.51a6.72,6.72,0,0,0-4.17,2.08,6.41,6.41,0,0,0-1.46,4.4v4a6.31,6.31,0,0,0,1.88,4.87,9.12,9.12,0,0,0,10.69,0,6.31,6.31,0,0,0,1.87-4.87V42a6.45,6.45,0,0,0-1.46-4.4A6.72,6.72,0,0,0,207.18,35.49Zm2.45,10.45a3.6,3.6,0,0,1-1,2.73,4.26,4.26,0,0,1-3,1,4.35,4.35,0,0,1-3-1,3.54,3.54,0,0,1-1.05-2.73V42A3.2,3.2,0,0,1,204,38.48V42.3a.92.92,0,0,0,.2.67,1,1,0,0,0,.69.19h1.4A1,1,0,0,0,207,43a.92.92,0,0,0,.2-.67V38.48c1.63.4,2.45,1.57,2.45,3.49Z"/><path class="cls-1" d="M229,33.76a9.28,9.28,0,0,0-4.46,1.2,5.09,5.09,0,0,0-3.39-1.2,10.71,10.71,0,0,0-4.43,1.05h0a2.57,2.57,0,0,0-1.12.8,2.25,2.25,0,0,0-.31,1.26V51.32a.88.88,0,0,0,.21.67,1,1,0,0,0,.69.19h1.4a1,1,0,0,0,.69-.19.92.92,0,0,0,.2-.67V37.43c0-.1.12-.19.36-.28l.3-.13a7.53,7.53,0,0,1,.86-.24,4,4,0,0,1,.93-.11,1.88,1.88,0,0,1,1.57.72,3.17,3.17,0,0,1,.56,2V46.5a.91.91,0,0,0,.21.68,1,1,0,0,0,.69.19h1.4a1.05,1.05,0,0,0,.69-.19,1,1,0,0,0,.2-.68V39.32a7.42,7.42,0,0,0-.25-1.89,5.71,5.71,0,0,1,2.77-.76,1.76,1.76,0,0,1,1.49.72,3.23,3.23,0,0,1,.55,2V51.32a.92.92,0,0,0,.2.67,1,1,0,0,0,.69.19h1.4a1,1,0,0,0,.69-.19.88.88,0,0,0,.2-.67v-12a6.07,6.07,0,0,0-1.26-4.08A4.64,4.64,0,0,0,229,33.76Z"/><path class="cls-1" d="M264.94,33.74a7,7,0,0,0-5,1.64,5.81,5.81,0,0,0-1.78,4.5V51.29a.72.72,0,0,0,.86.87h1.43a1.05,1.05,0,0,0,.69-.19,1,1,0,0,0,.2-.68l0-11.41a3.06,3.06,0,0,1,.94-2.39,4.54,4.54,0,0,1,5.29,0,3.12,3.12,0,0,1,.92,2.39V51.29a.73.73,0,0,0,.87.87h1.43a1.05,1.05,0,0,0,.69-.19,1,1,0,0,0,.2-.68V39.88a5.84,5.84,0,0,0-1.78-4.5A7,7,0,0,0,264.94,33.74Z"/><path class="cls-1" d="M287.2,43.85a4,4,0,0,1-.86-2,.92.92,0,0,0-.2-.67,1,1,0,0,0-.69-.19h-1.38a.78.78,0,0,0-.89.86,4.55,4.55,0,0,0,1.07,3,3.21,3.21,0,0,1,.92,1.88,2.63,2.63,0,0,1-1,2.16,4.19,4.19,0,0,1-2.71.77,3.59,3.59,0,0,1-2.73-1,3.85,3.85,0,0,1-.94-2.79l0-10.93a.88.88,0,0,0-.2-.67,1,1,0,0,0-.69-.19h-1.4a1,1,0,0,0-.69.19.92.92,0,0,0-.2.67V45.86a6.6,6.6,0,0,0,1.77,4.93,6.88,6.88,0,0,0,5.06,1.75,7.43,7.43,0,0,0,5-1.56,5.3,5.3,0,0,0,1.83-4.28A5.42,5.42,0,0,0,287.2,43.85Z"/><path class="cls-1" d="M116.43,67.3a.89.89,0,0,0-.2-.68,1,1,0,0,0-.69-.19h-1.37a.78.78,0,0,0-.9.87,4.54,4.54,0,0,0,1.07,3,3.15,3.15,0,0,1,.92,1.89,2.64,2.64,0,0,1-1,2.15,4.2,4.2,0,0,1-2.72.78,3.61,3.61,0,0,1-2.72-1,3.88,3.88,0,0,1-1-2.79l0-10.93a.94.94,0,0,0-.2-.68,1,1,0,0,0-.69-.19h-1.4a1,1,0,0,0-.69.19.89.89,0,0,0-.2.68V71.3a6.63,6.63,0,0,0,1.77,4.93,6.9,6.9,0,0,0,5,1.74,7.49,7.49,0,0,0,5-1.55,5.12,5.12,0,0,0,.7-7.14A4.13,4.13,0,0,1,116.43,67.3Z"/><path class="cls-1" d="M127.69,61.89a9.24,9.24,0,0,1-1.74-.73,1.11,1.11,0,0,1-.5-.79,1.07,1.07,0,0,0-.24-.69.94.94,0,0,0-.65-.18h-1.32a1,1,0,0,0-.69.2,1,1,0,0,0-.21.74,3.65,3.65,0,0,0,.79,2.51A7.07,7.07,0,0,0,126,64.57a9.39,9.39,0,0,1,3.47,1.71,3.26,3.26,0,0,1,.35,1.86v4.2c-.08,1.77-1.17,2.68-3.26,2.73a4.44,4.44,0,0,1-2.48-.65,3.72,3.72,0,0,1-1.31-2,1.27,1.27,0,0,0-.42-.6,1,1,0,0,0-.7,0l-1.33.43a.79.79,0,0,0-.58,1.12,6.17,6.17,0,0,0,2.34,3.47A7.86,7.86,0,0,0,126.6,78a6.93,6.93,0,0,0,4.81-1.5,5.1,5.1,0,0,0,1.66-4v-5a4.63,4.63,0,0,0-1.13-3.43A12,12,0,0,0,127.69,61.89Z"/><path class="cls-1" d="M142.14,59.22q-5,0-6.55,4.05a.79.79,0,0,0,.56,1.12l1.28.43a.74.74,0,0,0,1.12-.5,3.48,3.48,0,0,1,3.59-2.2,3.63,3.63,0,0,1,2.71,1,3.77,3.77,0,0,1,.93,2.77v1a16.15,16.15,0,0,0-3.87-.46,7.33,7.33,0,0,0-5,1.44,5.52,5.52,0,0,0-1.62,4.35,5.26,5.26,0,0,0,1.81,4.25,7.55,7.55,0,0,0,5,1.53,7,7,0,0,0,5.06-1.73A6.55,6.55,0,0,0,149,71.35V65.84a6.52,6.52,0,0,0-1.76-4.91A7,7,0,0,0,142.14,59.22Zm3.64,12.13a3.81,3.81,0,0,1-.93,2.76,3.6,3.6,0,0,1-2.71,1,4.23,4.23,0,0,1-2.71-.76,2.54,2.54,0,0,1-1-2.12,2.67,2.67,0,0,1,.85-2.16,4.27,4.27,0,0,1,2.69-.7,10.29,10.29,0,0,1,3.77.56Z"/><path class="cls-1" d="M163.41,67.3a.94.94,0,0,0-.2-.68,1,1,0,0,0-.69-.19h-1.37a.78.78,0,0,0-.9.87,4.54,4.54,0,0,0,1.07,3,3.2,3.2,0,0,1,.92,1.89,2.64,2.64,0,0,1-1,2.15,4.22,4.22,0,0,1-2.72.78,3.59,3.59,0,0,1-2.72-1,3.88,3.88,0,0,1-.95-2.79l0-10.93a.89.89,0,0,0-.21-.68,1,1,0,0,0-.68-.19h-1.4a1,1,0,0,0-.69.19.89.89,0,0,0-.21.68V71.3a6.59,6.59,0,0,0,1.78,4.93,6.9,6.9,0,0,0,5,1.74,7.51,7.51,0,0,0,5-1.55,5.12,5.12,0,0,0,.7-7.14A4.13,4.13,0,0,1,163.41,67.3Z"/><path class="cls-1" d="M174.67,61.89a9.24,9.24,0,0,1-1.74-.73,1.11,1.11,0,0,1-.5-.79,1.07,1.07,0,0,0-.24-.69.94.94,0,0,0-.65-.18h-1.33a1,1,0,0,0-.68.2,1,1,0,0,0-.21.74,3.65,3.65,0,0,0,.79,2.51A7.07,7.07,0,0,0,173,64.57a9.39,9.39,0,0,1,3.47,1.71,3.35,3.35,0,0,1,.35,1.86v4.2c-.08,1.77-1.17,2.68-3.26,2.73a4.41,4.41,0,0,1-2.48-.65,3.67,3.67,0,0,1-1.31-2,1.27,1.27,0,0,0-.42-.6,1,1,0,0,0-.7,0l-1.33.43a.8.8,0,0,0-.59,1.12,6.23,6.23,0,0,0,2.35,3.47A7.86,7.86,0,0,0,173.58,78a6.93,6.93,0,0,0,4.81-1.5,5.1,5.1,0,0,0,1.66-4v-5a4.59,4.59,0,0,0-1.14-3.43A11.82,11.82,0,0,0,174.67,61.89Z"/><path class="cls-1" d="M189.78,66.4a17.32,17.32,0,0,0-3.87.46V60.42a.89.89,0,0,0-.21-.68,1,1,0,0,0-.68-.19h-1.4a1,1,0,0,0-.69.19.89.89,0,0,0-.21.68V71.35a6.55,6.55,0,0,0,1.77,4.89A7,7,0,0,0,189.55,78a7.55,7.55,0,0,0,5-1.53,5.26,5.26,0,0,0,1.81-4.25,5.52,5.52,0,0,0-1.62-4.35A7.33,7.33,0,0,0,189.78,66.4Zm2.48,7.91a4.23,4.23,0,0,1-2.71.76,3.6,3.6,0,0,1-2.71-1,3.81,3.81,0,0,1-.93-2.76V69.89a10.33,10.33,0,0,1,3.77-.56,4.27,4.27,0,0,1,2.69.7,2.64,2.64,0,0,1,.85,2.16A2.54,2.54,0,0,1,192.26,74.31Z"/><path class="cls-1" d="M207.08,59.22a6.06,6.06,0,0,0-3.49,1.15l-.46-.28a4.9,4.9,0,0,0-1.27-.59,5.17,5.17,0,0,0-1.66-.28,8.69,8.69,0,0,0-2.37.33.8.8,0,0,0-.56,1.12l.33,1a.77.77,0,0,0,1.1.58,5.73,5.73,0,0,1,1.27-.18,1.89,1.89,0,0,1,1.57.74,3.2,3.2,0,0,1,.57,2v1.2a.87.87,0,0,0,.21.67,1,1,0,0,0,.68.19h1.4a1,1,0,0,0,.69-.19.87.87,0,0,0,.21-.67V64.77a7.82,7.82,0,0,0-.28-2.09,3.12,3.12,0,0,1,1.8-.56.93.93,0,0,1,.82.58,3.26,3.26,0,0,1,.31,1.51v7.93q0,2.92-3.29,2.93a4.53,4.53,0,0,1-2.5-.65,3.73,3.73,0,0,1-1.32-2,1.27,1.27,0,0,0-.42-.6,1,1,0,0,0-.7,0l-1.33.43a.79.79,0,0,0-.58,1.12,6.17,6.17,0,0,0,2.34,3.47A7.86,7.86,0,0,0,204.66,78a6.93,6.93,0,0,0,4.81-1.5,5.1,5.1,0,0,0,1.66-4v-8.2a5.84,5.84,0,0,0-1.06-3.69A3.54,3.54,0,0,0,207.08,59.22Z"/><path class="cls-1" d="M241.6,59.17a7.09,7.09,0,0,0-5,1.64,5.82,5.82,0,0,0-1.78,4.5V76.72a.94.94,0,0,0,.19.68,1,1,0,0,0,.68.19h1.42a1.05,1.05,0,0,0,.69-.19.89.89,0,0,0,.2-.68l0-11.41a3,3,0,0,1,.94-2.38,3.81,3.81,0,0,1,2.65-.86,3.76,3.76,0,0,1,2.64.86,3.07,3.07,0,0,1,.93,2.38V76.72a.94.94,0,0,0,.19.68,1,1,0,0,0,.67.19h1.43a1.05,1.05,0,0,0,.69-.19.94.94,0,0,0,.2-.68V65.31a5.82,5.82,0,0,0-1.78-4.5A7.09,7.09,0,0,0,241.6,59.17Z"/><path class="cls-1" d="M127.77,41a17.44,17.44,0,0,0-3.9.46V39.7a3.48,3.48,0,0,1,.61-2.38,3.13,3.13,0,0,1,2.18-.62h5.86a.92.92,0,0,0,.92-.92V34.71a.92.92,0,0,0-.92-.92h-5.86c-2.15,0-3.68.46-4.57,1.32s-1.38,2.41-1.38,4.59v6.21a6.59,6.59,0,0,0,1.76,4.9,6.92,6.92,0,0,0,5,1.73,7.55,7.55,0,0,0,5-1.53,5.28,5.28,0,0,0,1.8-4.25Q134.34,41,127.77,41Zm2.46,7.91a4.31,4.31,0,0,1-2.71.75,3.62,3.62,0,0,1-2.72-1,3.82,3.82,0,0,1-.93-2.77V44.46a10.37,10.37,0,0,1,3.77-.56,4.25,4.25,0,0,1,2.69.7,2.64,2.64,0,0,1,.86,2.16A2.54,2.54,0,0,1,130.23,48.88Z"/><path class="cls-1" d="M250.39,41a9.14,9.14,0,0,0-4.43,1.2,5.08,5.08,0,0,0-3.42-1.2,8.88,8.88,0,0,0-2.65.41,4.74,4.74,0,0,1,1-3.06c.66-.73,2-1.09,3.93-1.09h8.38a1,1,0,0,0,1-1V35.18a1,1,0,0,0-1-1h-8.41q-4.51,0-6.27,2.09h0q-1.82,2.11-1.81,6.73v8.28a.92.92,0,0,0,.2.67,1,1,0,0,0,.69.19H239a1,1,0,0,0,.69-.19.88.88,0,0,0,.2-.67V44.64c0-.08.12-.19.36-.3a5.07,5.07,0,0,1,2.06-.46,1.94,1.94,0,0,1,1.6.71,3.12,3.12,0,0,1,.57,2v3a.91.91,0,0,0,.2.67,1,1,0,0,0,.69.19h1.4a1,1,0,0,0,.69-.19.87.87,0,0,0,.2-.67v-3a7.22,7.22,0,0,0-.25-1.89,6,6,0,0,1,2.75-.76,1.81,1.81,0,0,1,1.52.72,3.27,3.27,0,0,1,.54,2v4.74a.88.88,0,0,0,.21.67,1,1,0,0,0,.69.19h1.4a1,1,0,0,0,.69-.19.92.92,0,0,0,.2-.67V46.53a6,6,0,0,0-1.27-4.08A4.67,4.67,0,0,0,250.39,41Z"/><path class="cls-1" d="M227.05,66.4a9.14,9.14,0,0,0-4.43,1.2,5.05,5.05,0,0,0-3.41-1.2,8.83,8.83,0,0,0-2.65.41,4.68,4.68,0,0,1,1-3.06c.67-.73,2-1.09,3.93-1.09h8.38a1,1,0,0,0,1-1V60.61a1,1,0,0,0-1-1h-8.41q-4.5,0-6.26,2.09h0q-1.81,2.11-1.81,6.73v8.28a.87.87,0,0,0,.21.67,1,1,0,0,0,.68.19h1.4a1,1,0,0,0,.69-.19.87.87,0,0,0,.21-.67V70.07c0-.08.12-.18.35-.3a5.08,5.08,0,0,1,2.07-.46,1.93,1.93,0,0,1,1.59.71,3.12,3.12,0,0,1,.57,2v3a.91.91,0,0,0,.21.68,1,1,0,0,0,.68.19h1.41a1,1,0,0,0,.68-.19.91.91,0,0,0,.21-.68V72a7.23,7.23,0,0,0-.26-1.89,6,6,0,0,1,2.75-.76,1.81,1.81,0,0,1,1.52.72,3.28,3.28,0,0,1,.55,2v4.74a.87.87,0,0,0,.2.67,1,1,0,0,0,.69.19h1.4a1,1,0,0,0,.69-.19.91.91,0,0,0,.2-.67V72a6.06,6.06,0,0,0-1.27-4.08A4.7,4.7,0,0,0,227.05,66.4Z"/><path class="cls-1" d="M172.1,27.11h12.27a.88.88,0,0,0,.88-.89v-1a.88.88,0,0,0-.88-.89h-11.3a3.51,3.51,0,0,1-2.37-1.06,2.89,2.89,0,0,1-1-2.07V11.9c0-.16.1-.27.3-.36a3.89,3.89,0,0,1,1.25-.33c.41,0,.73.26,1,.79a4.59,4.59,0,0,1,.35,1.91V18a.72.72,0,0,0,.87.86h1.45a.72.72,0,0,0,.87-.86V13.83a7.47,7.47,0,0,0-.26-2l.31-.15a5.85,5.85,0,0,1,.78-.34,2,2,0,0,1,.72-.17c.39,0,.71.27,1,.8a4.63,4.63,0,0,1,.37,1.9V18a.91.91,0,0,0,.19.67.93.93,0,0,0,.67.19H181a.93.93,0,0,0,.67-.19.91.91,0,0,0,.19-.67V13.83a8.79,8.79,0,0,0-.3-2l.3-.13a5.74,5.74,0,0,1,.78-.31,2.69,2.69,0,0,1,.8-.15c.85,0,1.28.9,1.28,2.7v5.63a.72.72,0,0,0,.86.87H187a1.05,1.05,0,0,0,.69-.19,1,1,0,0,0,.2-.68V13.83a6.81,6.81,0,0,0-1.1-3.87,3.51,3.51,0,0,0-3.1-1.66,7.23,7.23,0,0,0-3.6,1l-.35-.28a4.82,4.82,0,0,0-1-.51,3.15,3.15,0,0,0-1.17-.26A6,6,0,0,0,174,9.43l-.39-.28a4.67,4.67,0,0,0-1-.56,3.08,3.08,0,0,0-1.2-.29,7.73,7.73,0,0,0-3.56,1,2.94,2.94,0,0,0-1.07.86,2.2,2.2,0,0,0-.28,1.23V21.2a5.61,5.61,0,0,0,1.83,4.13A6,6,0,0,0,172.1,27.11Z"/></g></g></svg>